<svg width="327" height="233" viewBox="0 0 327 233" fill="none" xmlns="http://www.w3.org/2000/svg">
<g clip-path="url(#clip0)">
<path opacity="0.1" d="M108.714 232.869C124.639 232.869 137.548 230.783 137.548 228.21C137.548 225.638 124.639 223.552 108.714 223.552C92.7893 223.552 79.8798 225.638 79.8798 228.21C79.8798 230.783 92.7893 232.869 108.714 232.869Z" fill="#6C63FF"/>
<path opacity="0.1" d="M265.452 233C285.324 233 301.433 230.914 301.433 228.341C301.433 225.769 285.324 223.683 265.452 223.683C245.581 223.683 229.472 225.769 229.472 228.341C229.472 230.914 245.581 233 265.452 233Z" fill="#6C63FF"/>
<path opacity="0.1" d="M4.09549 100.673H34.1281V141.85H6.29415C6.22017 142.273 6.14915 142.698 6.07221 143.124H34.1281V176.332C34.0778 176.317 34.0334 176.299 33.986 176.282C33.193 175.966 32.4059 175.633 31.6187 175.275L31.1157 175.046C30.3265 174.671 29.5374 174.274 28.7483 173.856C28.4731 173.71 28.1979 173.558 27.9257 173.403C23.5449 170.935 19.5651 167.807 16.1245 164.128C16.0239 164.029 15.9292 163.925 15.8286 163.83C15.3492 163.306 14.8787 162.776 14.423 162.234L13.9199 161.639C13.3814 160.975 12.8605 160.294 12.3545 159.603C12.2805 159.502 12.2095 159.401 12.1326 159.305C10.0746 156.435 8.36587 153.327 7.04282 150.048C7.00139 149.95 6.96588 149.842 6.92741 149.75C6.52102 148.698 6.16099 147.637 5.84732 146.565C5.71119 146.115 5.58099 145.672 5.46854 145.205C5.42711 145.068 5.3916 144.934 5.35905 144.8C3.67824 138.2 3.47998 131.345 3.47998 124.537C3.47998 123.742 3.47998 122.945 3.47998 122.156C3.47998 119.402 3.51253 116.631 3.55988 113.863C3.55988 113.145 3.58947 112.431 3.60427 111.711C3.64569 109.883 3.70488 108.055 3.78182 106.227C3.79957 105.718 3.82324 105.212 3.84988 104.706C3.84988 104.415 3.86467 104.123 3.89426 103.831C3.96528 102.771 4.02447 101.721 4.09549 100.673Z" fill="#6C63FF"/>
<path opacity="0.1" d="M34.1281 54.8253H17.6544C20.3323 50.609 23.2582 46.5574 26.4165 42.6922C28.8637 39.6679 31.4471 36.7209 34.1281 33.8811V54.8253Z" fill="#6C63FF"/>
<path opacity="0.1" d="M34.1281 56.0994V99.3988H4.19019C4.19019 99.2738 4.2109 99.1458 4.21978 99.0207C4.24641 98.6784 4.27304 98.3361 4.30263 97.9967C4.33518 97.5979 4.37069 97.196 4.40916 96.8061C4.44763 96.4161 4.48906 95.9398 4.53345 95.5082C4.57784 95.0766 4.61926 94.639 4.66957 94.2074C4.71988 93.7757 4.76426 93.3441 4.81753 92.9155C4.87079 92.4868 4.91814 92.0522 4.97437 91.6236C5.01875 91.2664 5.0661 90.9121 5.11344 90.5549C5.18151 90.0519 5.25253 89.5458 5.32947 89.0457C5.32947 88.9713 5.35018 88.8939 5.36202 88.8225C5.90212 85.1616 6.63805 81.5327 7.5666 77.9515C8.53856 74.1948 9.77973 70.5139 11.2804 66.9376C12.8752 63.1964 14.7426 59.5788 16.8673 56.1142L34.1281 56.0994Z" fill="#6C63FF"/>
<path opacity="0.1" d="M41.2982 100.67V141.85H105.444V100.67H41.2982ZM41.2982 143.121V178.484C41.6651 178.562 42.0291 178.636 42.3901 178.699C42.8813 178.794 43.3696 178.88 43.8697 178.955C43.9644 178.969 44.062 178.984 44.1656 178.993C44.3609 179.026 44.5621 179.053 44.7574 179.08C45.2516 179.148 45.7428 179.205 46.237 179.249C46.4708 179.273 46.7075 179.294 46.9443 179.312L47.5154 179.356C47.8261 179.38 48.1338 179.398 48.4386 179.407C48.628 179.407 48.8174 179.425 49.0127 179.431C49.1607 179.431 49.3086 179.431 49.4625 179.431C49.6164 179.431 49.8354 179.431 50.0218 179.431C50.2763 179.431 50.5308 179.431 50.7823 179.431H51.1226C51.3771 179.431 51.6316 179.431 51.8831 179.407H51.9009C52.0754 179.407 52.253 179.407 52.4305 179.383C52.4798 179.386 52.5292 179.386 52.5785 179.383C52.7265 179.383 52.8744 179.383 53.0165 179.362H53.12L54.1114 179.285C54.4369 179.255 54.7653 179.217 55.0968 179.181L55.7715 179.1C58.5163 178.714 61.2307 178.133 63.8944 177.362C69.8778 175.683 75.731 173.335 81.7115 171.614C89.4438 169.396 97.9869 168.307 105.459 171.019V143.121H41.2982ZM105.444 54.8252V0.00291496C98.4212 -0.0736236 91.4173 0.752656 84.6026 2.46169C68.3598 6.56659 53.7858 15.47 41.2982 26.841V54.8222H44.5177V56.0933H41.2982V99.3987H105.444V56.0963H57.7363V54.8252H105.444ZM187.836 36.307C183.818 36.1641 179.823 34.8842 176.21 32.9076C169.3 29.1272 163.781 23.2898 157.614 18.3633C144.801 8.10258 128.91 1.91099 112.608 0.375005V54.8252H204.18L204.408 54.5841L187.836 36.307ZM196.178 34.8187L205.023 44.5823V32.2587C202.061 32.6278 199.466 33.5059 196.19 34.8068L196.178 34.8187ZM205.023 187.266V143.121H186.176C186.126 142.933 186.075 142.743 186.016 142.552C186.073 142.743 186.12 142.933 186.173 143.121H112.62V175.046C113.318 175.567 114.008 176.115 114.691 176.671C115.428 177.267 116.156 177.895 116.887 178.511L117.624 179.124C117.976 179.422 118.331 179.72 118.689 179.999C119.399 180.579 120.117 181.15 120.841 181.714C121.199 182.012 121.566 182.28 121.93 182.559C127.708 187.004 133.804 191.014 140.167 194.559C141.593 195.352 143.032 196.127 144.484 196.883C145.452 197.38 146.426 197.875 147.402 198.354C148.87 199.074 150.349 199.769 151.841 200.438C165.591 206.647 180.131 210.907 195.045 213.098C198.357 213.59 201.682 213.977 205.02 214.258V187.263H205.316L205.023 187.266ZM112.62 56.0963V99.3987H205.035V56.0963H112.62ZM112.62 100.67V141.85H205.035V100.67H112.62ZM212.208 32.2051V45.9516L223.497 33.491C219.757 32.8838 215.994 32.4502 212.208 32.1902V32.2051ZM212.208 100.685V141.85H302.093V100.67L212.208 100.685ZM301.764 190.534L302.081 143.121H212.208V214.732C217.998 214.976 223.796 214.907 229.578 214.523H229.679C232.441 214.349 235.19 214.095 237.926 213.761H237.988C252.586 212.052 266.86 208.221 280.363 202.387L301.764 190.534ZM319.424 107.451C319.087 106.65 318.735 105.855 318.377 105.069C317.708 103.581 317.001 102.134 316.273 100.688H309.26V141.85H326.991C326.982 130.193 324.05 118.286 319.433 107.436L319.424 107.451ZM309.26 143.136V183.917C314.255 179.1 318.475 173.59 321.514 167.292C325.168 159.707 326.84 151.494 326.976 143.13L309.26 143.136ZM309.26 88.6854V99.4016H315.616C313.693 95.7127 311.574 92.1304 309.269 88.6706L309.26 88.6854ZM248.301 40.2839C247.833 40.1053 247.366 39.9237 246.895 39.7481C241.933 37.9047 236.862 36.3718 231.712 35.158L214.436 54.2299L214.105 54.5841L214.327 54.8282H275.812C267.249 48.8987 258.017 44.0115 248.31 40.269L248.301 40.2839ZM277.614 56.1112H213.469L212.208 57.2721V99.3987H223.257H223.275H302.104V78.9932C294.974 70.3178 286.743 62.6199 277.623 56.0963L277.614 56.1112Z" fill="#6C63FF"/>
<path opacity="0.1" d="M34.1281 77.9396V99.3988H4.19019C4.19019 99.2737 4.2109 99.1457 4.21978 99.0207C4.24641 98.6784 4.27304 98.3361 4.30263 97.9967C4.33518 97.5979 4.37069 97.196 4.40916 96.806C4.44763 96.4161 4.48906 95.9398 4.53345 95.5082C4.57784 95.0766 4.61926 94.639 4.66957 94.2074C4.71988 93.7757 4.76426 93.3441 4.81753 92.9155C4.87079 92.4868 4.91814 92.0522 4.97437 91.6236C5.01875 91.2664 5.0661 90.9121 5.11344 90.5549C5.18151 90.0519 5.25253 89.5458 5.32947 89.0457C5.32947 88.9713 5.35018 88.8939 5.36202 88.8225C5.90212 85.1616 6.63805 81.5327 7.5666 77.9515L34.1281 77.9396Z" fill="#6C63FF"/>
<path opacity="0.1" d="M4.09549 100.673H34.1281V141.85H6.29415C6.22017 142.273 6.14915 142.698 6.07221 143.124H34.1281V176.332C34.0778 176.317 34.0334 176.299 33.986 176.282C33.193 175.966 32.4059 175.633 31.6187 175.275L31.1157 175.046C30.3265 174.671 29.5374 174.274 28.7483 173.856C28.4731 173.71 28.1979 173.558 27.9257 173.403C23.5449 170.935 19.5651 167.807 16.1245 164.128C16.0239 164.029 15.9292 163.925 15.8286 163.83C15.3492 163.306 14.8787 162.776 14.423 162.234L13.9199 161.639C13.3814 160.975 12.8605 160.294 12.3545 159.603C12.2805 159.502 12.2095 159.401 12.1326 159.305C10.0746 156.435 8.36587 153.327 7.04282 150.048C7.00139 149.95 6.96588 149.842 6.92741 149.75C6.52102 148.698 6.16099 147.637 5.84732 146.565C5.71119 146.115 5.58099 145.672 5.46854 145.205C5.42711 145.068 5.3916 144.934 5.35905 144.8C3.67824 138.2 3.47998 131.345 3.47998 124.537C3.47998 123.742 3.47998 122.945 3.47998 122.156C3.47998 119.402 3.51253 116.631 3.55988 113.863C3.55988 113.145 3.58947 112.431 3.60427 111.711C3.64569 109.883 3.70488 108.055 3.78182 106.227C3.79957 105.718 3.82324 105.212 3.84988 104.706C3.84988 104.415 3.86467 104.123 3.89426 103.831C3.96528 102.771 4.02447 101.721 4.09549 100.673Z" fill="#6C63FF"/>
<path opacity="0.1" d="M63.8796 62.2969V99.3988H41.2982V62.2969H44.5177V49.7351H57.7334V62.2969H63.8796Z" fill="#6C63FF"/>
<path opacity="0.1" d="M63.8796 100.67H41.3011V141.847H63.8796V100.67Z" fill="#6C63FF"/>
<path opacity="0.1" d="M41.2982 143.124H63.8796V177.356C61.2159 178.126 58.5015 178.706 55.7567 179.092L55.082 179.175C54.7505 179.214 54.4221 179.246 54.0966 179.279C53.7711 179.312 53.4337 179.336 53.1052 179.356H53.0017C52.8596 179.356 52.7058 179.374 52.5667 179.377H52.4158C52.2382 179.377 52.0607 179.395 51.8831 179.401C51.6316 179.416 51.38 179.419 51.1226 179.422C51.0131 179.422 50.9095 179.422 50.8 179.422C50.5456 179.422 50.294 179.422 50.0395 179.422H49.4803C49.3293 179.422 49.1843 179.422 49.0275 179.422L48.4564 179.401C48.1605 179.401 47.8409 179.368 47.5331 179.348L46.965 179.306L46.2577 179.24C45.7606 179.196 45.2664 179.139 44.7781 179.071L44.1863 178.987L43.8904 178.946C43.3962 178.868 42.9079 178.785 42.4108 178.69C42.0468 178.627 41.6858 178.55 41.3189 178.475L41.2982 143.124Z" fill="#6C63FF"/>
<path opacity="0.1" d="M205.035 57.9152H186.416V99.3958H205.035V57.9152Z" fill="#6C63FF"/>
<path opacity="0.1" d="M205.038 100.67V141.85H112.62V124.088H161.846V134.566H186.416V100.67H205.038Z" fill="#6C63FF"/>
<path opacity="0.1" d="M205.331 187.275H205.035V214.288C201.701 214.005 198.377 213.619 195.062 213.13C180.141 210.933 165.595 206.663 151.841 200.444C147.87 198.646 143.979 196.683 140.17 194.556C133.807 191.009 127.71 186.999 121.93 182.556C120.478 181.437 119.044 180.292 117.63 179.121C116.65 178.309 115.677 177.475 114.691 176.666C114.008 176.109 113.318 175.561 112.62 175.037V143.124H186.17C186.12 142.933 186.07 142.743 186.016 142.555C186.073 142.743 186.126 142.933 186.176 143.124H205.035V187.257C205.136 187.26 205.233 187.269 205.331 187.275Z" fill="#6C63FF"/>
<path opacity="0.1" d="M253.595 54.8252H241.462V51.0329H246.901V39.7362C247.373 39.9089 247.842 40.0865 248.31 40.269V51.0329H253.595V54.8252Z" fill="#6C63FF"/>
<path opacity="0.1" d="M282.825 99.3988H223.263C223.263 99.3988 223.263 99.3988 223.284 99.4137L223.257 99.3988H212.208V57.9181H215.339V88.5784H229.646V70.4204H241.465V56.0994H253.598V70.4323H265.417V88.5903H282.825V99.3988Z" fill="#6C63FF"/>
<path opacity="0.1" d="M212.208 100.67V141.85H282.825V100.67H212.208ZM301.995 190.323L302.093 157.728H282.825V143.142H212.208V214.732C217.998 214.977 223.796 214.907 229.578 214.523H229.679C232.441 214.349 235.19 214.095 237.926 213.761H237.988C252.586 212.052 266.86 208.221 280.363 202.387" fill="#6C63FF"/>
<path opacity="0.1" d="M310.514 143.124H326.988C326.843 151.485 325.174 159.698 321.523 167.283C318.483 173.585 314.261 179.094 309.272 183.908V157.713H310.514V143.124Z" fill="#6C63FF"/>
<path opacity="0.1" d="M326.997 141.85H310.514V107.436H319.433C324.05 118.286 326.982 130.193 326.997 141.85Z" fill="#6C63FF"/>
<path opacity="0.1" d="M205.038 69.4469H195.062V82.4522H205.038V69.4469Z" fill="#6C63FF"/>
<path opacity="0.1" d="M205.038 96.4042H195.062V99.3988H205.038V96.4042Z" fill="#6C63FF"/>
<path opacity="0.1" d="M205.038 100.67H195.062V109.406H205.038V100.67Z" fill="#6C63FF"/>
<path opacity="0.1" d="M205.038 123.361H195.062V136.367H205.038V123.361Z" fill="#6C63FF"/>
<path opacity="0.1" d="M205.038 150.319H195.062V163.324H205.038V150.319Z" fill="#6C63FF"/>
<path opacity="0.1" d="M205.035 187.257C205.136 187.257 205.233 187.257 205.331 187.275H205.035V190.296H195.062V177.276H205.035V187.257Z" fill="#6C63FF"/>
<path opacity="0.1" d="M205.035 204.227V214.273C201.701 213.99 198.377 213.604 195.062 213.116V204.227H205.035Z" fill="#6C63FF"/>
<path opacity="0.1" d="M155.371 140.894H112.62V141.85H155.371V140.894Z" fill="#6C63FF"/>
<path opacity="0.1" d="M155.371 143.121H112.62V146.782H155.371V143.121Z" fill="#6C63FF"/>
<path opacity="0.1" d="M155.371 158.784H112.62V164.672H155.371V158.784Z" fill="#6C63FF"/>
<path opacity="0.1" d="M155.368 176.674V182.562H121.93C120.478 181.447 119.043 180.302 117.627 179.127C116.647 178.315 115.677 177.481 114.689 176.674H155.368Z" fill="#6C63FF"/>
<path opacity="0.1" d="M155.368 194.562V200.444H151.838C147.871 198.644 143.981 196.68 140.17 194.553L155.368 194.562Z" fill="#6C63FF"/>
<path opacity="0.1" d="M237.997 104.662H229.581V113.127H237.997V104.662Z" fill="#6C63FF"/>
<path opacity="0.1" d="M55.7774 65.217H47.3615V73.6828H55.7774V65.217Z" fill="#6C63FF"/>
<path opacity="0.1" d="M55.7774 84.8812H47.3615V93.347H55.7774V84.8812Z" fill="#6C63FF"/>
<path opacity="0.1" d="M55.7774 104.545H47.3615V113.011H55.7774V104.545Z" fill="#6C63FF"/>
<path opacity="0.1" d="M55.7774 124.207H47.3615V132.673H55.7774V124.207Z" fill="#6C63FF"/>
<path opacity="0.1" d="M55.7774 143.871H47.3615V152.337H55.7774V143.871Z" fill="#6C63FF"/>
<path opacity="0.1" d="M55.7774 163.535H47.3615V172.001H55.7774V163.535Z" fill="#6C63FF"/>
<path opacity="0.1" d="M270.125 104.662H261.709V113.127H270.125V104.662Z" fill="#6C63FF"/>
<path opacity="0.1" d="M237.997 125.543H229.581V134.009H237.997V125.543Z" fill="#6C63FF"/>
<path opacity="0.1" d="M270.125 125.543H261.709V134.009H270.125V125.543Z" fill="#6C63FF"/>
<path opacity="0.1" d="M237.997 146.422H229.581V154.888H237.997V146.422Z" fill="#6C63FF"/>
<path opacity="0.1" d="M270.125 146.422H261.709V154.888H270.125V146.422Z" fill="#6C63FF"/>
<path opacity="0.1" d="M237.997 167.304H229.581V175.769H237.997V167.304Z" fill="#6C63FF"/>
<path opacity="0.1" d="M270.125 167.304H261.709V175.769H270.125V167.304Z" fill="#6C63FF"/>
<path opacity="0.1" d="M237.997 188.185H229.581V196.651H237.997V188.185Z" fill="#6C63FF"/>
<path opacity="0.1" d="M270.125 188.185H261.709V196.651H270.125V188.185Z" fill="#6C63FF"/>
<path opacity="0.1" d="M229.581 214.523V209.064H237.994V213.746L229.581 214.523Z" fill="#6C63FF"/>
<path opacity="0.1" d="M5.32651 88.8165V93.6596H34.1281V88.8165H5.32651ZM8.1969 93.356H5.84732V89.1142H8.21466L8.1969 93.356ZM11.0643 93.356H8.697V89.1142H11.0643V93.356ZM13.9259 93.356H11.5585V89.1142H13.9259V93.356ZM16.7933 93.356H14.4289V89.1142H16.7962L16.7933 93.356ZM19.6578 93.356H17.2904V89.1142H19.6578V93.356ZM22.5252 93.356H20.1579V89.1142H22.5252V93.356ZM25.3926 93.356H23.0253V89.1142H25.3926V93.356ZM28.2571 93.356H25.8898V89.1142H28.2571V93.356ZM31.1216 93.356H28.7542V89.1142H31.1216V93.356ZM33.9861 93.356H31.6187V89.1142H33.9861V93.356Z" fill="#6C63FF"/>
<path opacity="0.1" d="M5.32651 102.908V107.751H34.1281V102.908H5.32651ZM8.1969 107.445H5.84732V103.215H8.21466L8.1969 107.445ZM11.0643 107.445H8.697V103.215H11.0643V107.445ZM13.9259 107.445H11.5585V103.215H13.9259V107.445ZM16.7933 107.445H14.4289V103.215H16.7962L16.7933 107.445ZM19.6578 107.445H17.2904V103.215H19.6578V107.445ZM22.5252 107.445H20.1579V103.215H22.5252V107.445ZM25.3926 107.445H23.0253V103.215H25.3926V107.445ZM28.2571 107.445H25.8898V103.215H28.2571V107.445ZM31.1216 107.445H28.7542V103.215H31.1216V107.445ZM33.9861 107.445H31.6187V103.215H33.9861V107.445Z" fill="#6C63FF"/>
<path opacity="0.1" d="M5.32651 117.006V121.858H34.1281V117.006H5.32651ZM8.1969 121.543H5.84732V117.31H8.21466L8.1969 121.543ZM11.0643 121.543H8.697V117.31H11.0643V121.543ZM13.9259 121.543H11.5585V117.31H13.9259V121.543ZM16.7933 121.543H14.4289V117.31H16.7962L16.7933 121.543ZM19.6578 121.543H17.2904V117.31H19.6578V121.543ZM22.5252 121.543H20.1579V117.31H22.5252V121.543ZM25.3926 121.543H23.0253V117.31H25.3926V121.543ZM28.2571 121.543H25.8898V117.31H28.2571V121.543ZM31.1216 121.543H28.7542V117.31H31.1216V121.543ZM33.9861 121.543H31.6187V117.31H33.9861V121.543Z" fill="#6C63FF"/>
<path opacity="0.1" d="M5.32651 131.104V135.941H34.1281V131.104H5.32651ZM8.1969 135.64H5.84732V131.404H8.21466L8.1969 135.64ZM11.0643 135.64H8.697V131.404H11.0643V135.64ZM13.9259 135.64H11.5585V131.404H13.9259V135.64ZM16.7933 135.64H14.4289V131.404H16.7962L16.7933 135.64ZM19.6578 135.64H17.2904V131.404H19.6578V135.64ZM22.5252 135.64H20.1579V131.404H22.5252V135.64ZM25.3926 135.64H23.0253V131.404H25.3926V135.64ZM28.2571 135.64H25.8898V131.404H28.2571V135.64ZM31.1216 135.64H28.7542V131.404H31.1216V135.64ZM33.9861 135.64H31.6187V131.404H33.9861V135.64Z" fill="#6C63FF"/>
<path opacity="0.1" d="M5.45079 145.198C5.5662 145.654 5.6964 146.109 5.83252 146.559V145.502H8.19986V149.735H6.93333C6.9718 149.833 7.01027 149.94 7.04874 150.033H34.1281V145.198H5.45079ZM11.0732 149.735H8.70588V145.502H11.0732V149.735ZM13.9347 149.735H11.5674V145.502H13.9347V149.735ZM16.8022 149.735H14.4289V145.502H16.7962L16.8022 149.735ZM19.6666 149.735H17.2993V145.502H19.6666V149.735ZM22.5341 149.735H20.1667V145.502H22.5341V149.735ZM25.4015 149.735H23.0342V145.502H25.4015V149.735ZM28.266 149.735H25.8986V145.502H28.266V149.735ZM31.1305 149.735H28.7631V145.502H31.1305V149.735ZM33.9949 149.735H31.6276V145.502H33.9949V149.735Z" fill="#6C63FF"/>
<path opacity="0.1" d="M12.1385 159.296C12.2125 159.392 12.2835 159.499 12.3604 159.594H13.9258V161.627C14.0945 161.83 14.2602 162.032 14.4319 162.222V159.582H16.7992V163.83H15.8404C15.9351 163.928 16.0268 164.032 16.1363 164.128H34.137V159.296H12.1385ZM19.6577 163.83H17.2904V159.6H19.6577V163.83ZM22.5252 163.83H20.1578V159.6H22.5252V163.83ZM25.3926 163.83H23.0253V159.6H25.3926V163.83ZM28.2571 163.83H25.8898V159.6H28.2571V163.83ZM31.1216 163.83H28.7542V159.6H31.1216V163.83ZM33.986 163.83H31.6187V159.6H33.986V163.83Z" fill="#6C63FF"/>
<path opacity="0.1" d="M27.9375 173.391C28.2068 173.546 28.482 173.689 28.7602 173.844V173.695H31.1275V175.034L31.6306 175.269V173.695H33.9979V176.27C34.0433 176.292 34.0909 176.31 34.1399 176.323V173.391H27.9375Z" fill="#6C63FF"/>
<path opacity="0.1" d="M223.263 99.3988H223.281H223.263ZM205.035 187.254H205.331H205.035ZM186.016 142.552C186.073 142.743 186.12 142.933 186.173 143.121C186.126 142.933 186.075 142.743 186.016 142.552ZM223.263 99.3899H223.281H223.263ZM44.5296 54.8164V56.0875H57.7482V54.8164H44.5296ZM205.035 187.254H205.331H205.035ZM186.016 142.552C186.073 142.743 186.12 142.933 186.173 143.121C186.126 142.933 186.075 142.743 186.016 142.552ZM223.263 99.3899H223.281H223.263ZM205.035 187.245H205.331H205.035ZM186.016 142.552C186.073 142.743 186.12 142.933 186.173 143.121C186.126 142.933 186.075 142.743 186.016 142.552Z" fill="#6C63FF"/>
<path d="M136.595 113.017C136.595 113.017 135.429 112.853 135.429 111.145C135.429 109.436 134.595 106.245 134.595 106.245C134.595 106.23 133.873 100.688 132.876 99.8065C131.878 98.9254 130.597 93.7518 130.597 93.7518C130.597 93.7518 130.378 90.9448 129.931 90.3405C129.484 89.7363 128.881 88.2568 127.99 86.1463C127.099 84.0358 123.385 82.5743 123.385 82.5743C123.385 82.5743 116.671 78.6569 114.768 77.3799C114.595 77.275 114.434 77.1523 114.286 77.0137C113.955 76.5762 112.511 76.5672 112.511 76.5672C112.36 75.6087 112.215 74.5073 112.167 73.5101C112.167 73.403 112.167 73.2958 112.152 73.1887C114.274 71.9271 115.872 69.9379 116.653 67.5865C116.689 67.4733 116.718 67.3543 116.751 67.2412C116.878 67.199 116.995 67.1307 117.095 67.0405C117.194 66.9503 117.273 66.8402 117.328 66.7173C117.5 66.3333 117.503 65.8838 117.716 65.5266C117.964 65.1039 118.438 64.8776 118.811 64.5591C119.752 63.7554 119.994 62.401 119.95 61.1686C119.92 60.1714 119.761 59.1653 119.823 58.1741L119.84 57.924C119.858 57.7752 119.879 57.6264 119.905 57.4835C120.05 56.7452 120.367 56.0487 120.545 55.3164C120.722 54.5841 120.74 53.7596 120.326 53.1285C119.719 52.2028 118.456 52.0182 117.346 51.9229C116.088 51.8158 114.964 51.9557 114.159 50.9049C113.782 50.3557 113.358 49.8408 112.892 49.3659C112.727 49.2112 111.117 48.2229 111.117 48.1574C109.546 47.4254 107.765 47.288 106.101 47.7704C105.266 48.0145 104.479 48.4134 103.633 48.6128C101.807 49.0474 99.7062 48.5771 98.1556 49.6279C97.2915 50.2232 96.7737 51.1698 96.2884 52.0926C95.8938 52.8527 95.4933 53.6117 95.087 54.3698C94.433 55.6171 93.7672 56.8851 93.492 58.2663C93.4341 58.5669 93.3985 58.8714 93.3854 59.1772V59.1921C93.3854 59.3022 93.3854 59.4124 93.3854 59.5225V59.6624C93.3854 59.7666 93.3854 59.8678 93.4032 59.9601C93.4209 60.0524 93.418 60.0821 93.4269 60.1447C93.4357 60.2072 93.4505 60.3471 93.4683 60.4423C93.486 60.5376 93.5216 60.7043 93.5571 60.8353C93.5719 60.8918 93.5926 60.9454 93.6103 60.999C93.6399 61.1002 93.6754 61.1984 93.7139 61.2966C93.7346 61.3472 93.7553 61.4008 93.779 61.4514C93.8234 61.5556 93.8767 61.6568 93.9299 61.7491C93.9536 61.7908 93.9713 61.8295 93.995 61.8682C94.0776 62.0066 94.1685 62.1398 94.2673 62.2671C94.9005 63.0618 95.8327 63.5679 96.5222 64.3121C96.5222 64.3418 96.5222 64.3716 96.5222 64.3984C96.5222 64.4817 96.5222 64.5621 96.5222 64.6455C96.5587 66.3051 96.9979 67.9307 97.8014 69.3807C98.6049 70.8307 99.7484 72.0613 101.133 72.9654C101.133 73.0785 101.147 73.1946 101.153 73.3077C101.211 74.1913 101.2 75.0781 101.121 75.96C101 75.8172 100.849 75.7035 100.679 75.6273C100.509 75.551 100.324 75.5141 100.138 75.5194C100.011 75.5132 99.8837 75.5242 99.7595 75.5522L99.7328 75.5313V75.5581C99.0818 75.7189 98.2799 76.4005 97.5135 78.3384C97.5135 78.3384 95.1817 80.9817 93.4061 80.8716C91.6306 80.7614 87.1357 83.6221 87.1357 83.6221C87.1357 83.6221 82.7502 86.4857 81.8092 89.4029C81.2832 91.0571 80.6526 92.6757 79.9212 94.249L74.5 105.486L73.4998 114.401C73.4998 114.401 74.0532 118.366 73.9437 118.971C73.8342 119.575 76.2193 125.025 76.2193 125.025C76.2193 125.025 84.0996 138.953 87.3191 139.668L87.55 139.504C87.6877 139.576 87.8338 139.631 87.985 139.668L88.6478 139.197C88.6876 139.722 88.6707 140.249 88.5975 140.769C88.1536 142.144 88.7632 151.119 89.5385 152.878C90.3138 154.638 90.0386 177.704 90.0386 177.704L89.9291 179.74C89.9291 179.74 89.9291 179.806 89.9558 179.919L89.9291 180.401L90.009 180.443C90.092 181.089 90.065 181.744 89.9291 182.381C89.651 183.274 89.5385 185.798 89.5385 185.798C89.5385 185.798 87.3221 200.051 88.3726 202.914C89.4231 205.778 90.3168 208.915 90.3168 208.915C90.3168 208.915 91.4265 212.487 90.37 213.098C89.3136 213.708 86.3101 214.732 86.9285 216.22C87.4908 217.595 89.6243 221.281 89.941 221.819L89.9143 222.102L89.4793 226.844C89.5498 227.47 89.7186 228.081 89.9794 228.654C90.4559 229.687 91.3821 230.758 93.1428 230.642C93.4387 230.622 93.782 230.586 94.1134 230.541C97.3359 230.107 101.304 228.66 101.304 228.66C101.098 228.528 100.909 228.371 100.742 228.193C100.584 228.038 100.458 227.853 100.373 227.648C100.288 227.444 100.245 227.224 100.248 227.002C100.295 226.139 98.6883 222.025 98.2888 221.013C98.2266 220.867 98.1941 220.783 98.1941 220.783C98.1941 220.783 101.858 216.932 101.248 213.517C101.248 213.517 97.1939 211.136 98.5285 209.829C99.8631 208.522 102.248 204.769 102.248 204.769C102.248 204.769 102.358 190.733 102.248 188.638C102.134 187.183 102.203 185.72 102.452 184.283C102.497 184.066 102.55 183.854 102.606 183.646C104.452 183.923 106.315 184.065 108.181 184.072C108.862 184.072 109.554 184.072 110.253 184.03C110.253 184.228 110.262 184.443 110.279 184.673C110.433 188.15 110.72 194.246 110.954 196.511C111.285 199.759 113.117 208.51 113.117 208.51C113.117 208.51 109.622 210.767 113.727 216.327C113.727 216.327 113.727 218.343 113.455 218.634C113.164 219.588 112.93 220.558 112.753 221.54C112.582 222.587 112.511 223.647 112.789 224.198C113.455 225.513 117.449 225.406 117.449 225.406L117.547 225.388C118.301 225.31 119.063 225.383 119.789 225.603C120.515 225.824 121.19 226.187 121.776 226.671C123.294 227.898 129.055 227.359 132.174 226.969C133.396 226.814 134.213 226.671 134.213 226.671C134.253 226.532 134.267 226.387 134.255 226.243C134.222 225.472 133.621 223.781 129.549 222.272C129.549 222.272 125.72 219.682 125.774 217.426H125.694H125.25C125.572 217.408 125.779 217.426 125.779 217.426C125.779 217.426 124.279 211.919 124.892 211.472C125.504 211.026 123.67 204.923 123.67 204.923C123.67 204.923 122.619 194.684 122.563 193.966C122.565 193.351 122.658 192.739 122.838 192.15L122.563 186.536C122.563 186.536 122.51 184.67 122.563 184.063C122.554 183.536 122.511 183.01 122.436 182.488C122.409 182.28 122.382 182.062 122.353 181.848C123.788 181.482 124.72 181.142 124.72 181.142L124.554 161.6C125.774 159.219 125.998 153.995 125.993 150.289C125.993 147.907 125.886 146.145 125.886 146.145L127.552 143.41C127.552 143.41 127.937 140.135 127.327 139.418C127.058 139.093 127.179 138.757 127.401 138.48C127.516 138.388 127.638 138.305 127.765 138.23C127.765 138.23 127.747 138.203 127.727 138.165C127.843 138.067 127.967 137.978 128.096 137.9C128.096 137.9 127.505 136.977 128.034 136.587C128.531 136.926 128.975 137.182 129.313 137.391C129.289 137.608 129.265 137.733 129.265 137.733L129.407 137.435C129.733 137.62 129.931 137.733 129.931 137.733C129.931 137.733 132.541 132.503 132.485 131.732C132.429 130.961 134.26 127.713 134.26 127.713C134.26 127.713 134.482 126.008 135.483 125.293C136.483 124.579 136.258 119.402 136.258 119.402C136.258 119.402 136.536 116.705 137.202 115.604C137.868 114.503 136.595 113.017 136.595 113.017ZM86.6563 110.722L86.7066 111.969C86.4107 111.49 86.1976 111.145 86.1976 111.145L86.6563 110.722Z" fill="url(#paint0_linear)"/>
<path d="M130.073 135.474L129.434 138.212C129.434 138.212 124.315 135.584 123.391 132.244C122.468 128.904 124.936 127.636 124.936 127.636L129.706 129.669L130.073 135.474Z" fill="white"/>
<path opacity="0.1" d="M130.073 135.474L129.434 138.212C129.434 138.212 124.315 135.584 123.391 132.244C122.468 128.904 124.936 127.636 124.936 127.636L129.706 129.669L130.073 135.474Z" fill="black"/>
<path d="M101.343 228.678C101.343 228.678 96.608 230.428 93.3529 230.648C91.6247 230.765 90.7163 229.699 90.2487 228.672C89.9933 228.101 89.8286 227.493 89.7605 226.871L90.1836 222.153L90.4085 219.64L97.3241 217.834L98.3036 220.846L98.3953 221.075C98.7889 222.081 100.366 226.174 100.319 227.029C100.317 227.247 100.359 227.464 100.442 227.666C100.526 227.868 100.649 228.051 100.804 228.205C100.963 228.385 101.144 228.544 101.343 228.678Z" fill="white"/>
<path d="M133.683 226.279C133.695 226.422 133.681 226.566 133.642 226.704C133.642 226.704 123.516 228.404 121.444 226.704C120.86 226.208 120.18 225.84 119.446 225.623C118.712 225.407 117.941 225.347 117.183 225.448C117.183 225.448 113.265 225.555 112.611 224.257C112.339 223.713 112.41 222.656 112.579 221.614C112.751 220.638 112.98 219.673 113.265 218.724L113.422 218.599L114.354 217.846L125.268 217.521H125.35C125.297 219.766 129.055 222.34 129.055 222.34C133.047 223.829 133.636 225.511 133.683 226.279Z" fill="white"/>
<path opacity="0.1" d="M133.683 226.279C133.694 226.422 133.679 226.566 133.639 226.704C133.639 226.704 123.516 228.404 121.444 226.704C120.861 226.208 120.18 225.84 119.447 225.624C118.714 225.407 117.944 225.348 117.186 225.448C117.186 225.448 113.265 225.555 112.614 224.257C112.342 223.71 112.41 222.656 112.579 221.614C114.088 221.766 116.47 222.144 117.405 223.046C118.82 224.418 121.216 225.787 122.687 225.895C123.838 225.969 130.724 226.189 133.683 226.279Z" fill="black"/>
<path opacity="0.1" d="M101.343 228.678C101.343 228.678 96.608 230.428 93.3529 230.648C91.6248 230.764 90.7163 229.699 90.2517 228.669C91.4561 229.077 93.128 229.505 94.0069 229.112C95.0485 228.648 98.7416 228.347 100.813 228.219C100.971 228.393 101.148 228.547 101.343 228.678Z" fill="black"/>
<path d="M108.368 87.6258C104.462 86.0988 99.4369 81.0532 100.692 78.6957C100.97 78.1007 101.136 77.4586 101.18 76.8025C101.261 75.9117 101.272 75.016 101.215 74.1234C101.127 72.6616 100.953 71.2063 100.692 69.7655C100.692 69.7655 112.886 70.0423 112.176 71.8492C111.969 72.3791 111.936 73.2989 111.993 74.3288C112.049 75.3588 112.197 76.5227 112.351 77.508C112.564 78.8594 112.777 79.8893 112.777 79.8893C112.777 79.8893 112.031 80.9401 111.593 80.9967C111.155 81.0532 113.972 89.8018 108.368 87.6258Z" fill="#CF6F80"/>
<path opacity="0.1" d="M98.3864 221.075L98.2947 221.176C94.649 216.741 90.2398 222.269 90.2398 222.269L90.1747 222.153L90.3996 219.64L97.3152 217.834L98.2947 220.846L98.3864 221.075Z" fill="black"/>
<path opacity="0.1" d="M125.353 217.834C125.353 217.834 122.69 217.777 121.27 219.039C119.849 220.301 112.984 219.313 113.28 219.039C113.368 218.903 113.42 218.748 113.434 218.587L114.366 217.834L125.279 217.509C125.321 217.709 125.353 217.834 125.353 217.834Z" fill="black"/>
<path d="M102.923 183.003C102.724 183.496 102.574 184.008 102.473 184.53C102.226 185.961 102.158 187.416 102.269 188.864C102.378 190.948 102.269 204.912 102.269 204.912C102.269 204.912 99.9282 208.635 98.6232 209.948C97.3182 211.261 101.286 213.619 101.286 213.619C101.878 217.012 98.2918 220.846 98.2918 220.846C94.6461 216.411 90.2369 221.941 90.2369 221.941C90.2369 221.941 87.84 217.774 87.2422 216.286C86.6445 214.797 89.5829 213.767 90.6157 213.163C91.6484 212.559 90.5654 208.996 90.5654 208.996C90.5654 208.996 89.6924 205.873 88.6567 203.024C87.621 200.176 89.7989 185.995 89.7989 185.995C89.7989 185.995 89.9114 183.476 90.1807 182.598C90.3165 181.964 90.3436 181.312 90.2606 180.669C90.2428 180.452 90.2221 180.27 90.2073 180.148C90.1925 180.026 90.1807 179.97 90.1807 179.97L90.2221 179.898L91.7017 177.124C91.7017 177.124 103.633 181.256 102.923 183.003Z" fill="#6C63FF"/>
<path d="M125.353 217.506C125.353 217.506 122.69 217.45 121.27 218.697C119.849 219.944 112.984 218.971 113.28 218.697C113.576 218.423 113.552 216.396 113.552 216.396C109.525 210.865 112.96 208.621 112.96 208.621C112.96 208.621 111.161 199.914 110.836 196.684C110.608 194.428 110.327 188.364 110.176 184.902C110.111 183.414 110.072 182.39 110.072 182.39L113.363 181.723L113.786 181.637L121.722 180.035C121.722 180.035 121.941 181.524 122.089 182.741C122.163 183.261 122.205 183.785 122.214 184.31C122.16 184.905 122.214 186.769 122.214 186.769L122.483 192.356C122.307 192.942 122.216 193.55 122.214 194.163C122.267 194.874 123.3 205.06 123.3 205.06C123.3 205.06 125.096 211.139 124.483 211.577C123.871 212.014 125.353 217.506 125.353 217.506Z" fill="#6C63FF"/>
<path opacity="0.1" d="M112.176 71.8492C111.969 72.3791 111.936 73.2989 111.993 74.3288C110.359 75.3183 108.481 75.8242 106.575 75.7884C104.669 75.7526 102.811 75.1765 101.215 74.1264C101.128 72.6636 100.953 71.2073 100.692 69.7655C100.692 69.7655 112.886 70.0364 112.176 71.8492Z" fill="black"/>
<path d="M116.89 65.2706C116.892 66.3433 116.725 67.4095 116.393 68.4289C115.652 70.7132 114.131 72.6602 112.101 73.9259C110.07 75.1917 107.661 75.6946 105.297 75.3459C102.934 74.9971 100.769 73.8192 99.1854 72.0201C97.6018 70.2211 96.7015 67.9169 96.6435 65.5147C96.6435 65.4314 96.6435 65.354 96.6435 65.2706C96.6205 63.9185 96.8654 62.5753 97.3639 61.3193C97.8624 60.0634 98.6046 58.9199 99.547 57.9555C100.489 56.9911 101.613 56.2251 102.853 55.7023C104.093 55.1794 105.424 54.9102 106.768 54.9102C108.113 54.9102 109.444 55.1794 110.683 55.7023C111.923 56.2251 113.047 56.9911 113.99 57.9555C114.932 58.9199 115.674 60.0634 116.173 61.3193C116.671 62.5753 116.916 63.9185 116.893 65.2706H116.89Z" fill="#CF6F80"/>
<path opacity="0.1" d="M108.368 87.6257C104.462 86.0987 99.4369 81.0531 100.692 78.6956C100.97 78.1006 101.136 77.4585 101.18 76.8024L106.527 81.2228L109.835 83.9525L112.351 77.5108C112.564 78.8623 112.777 79.8922 112.777 79.8922C112.777 79.8922 112.031 80.943 111.593 80.9995C111.155 81.0561 113.972 89.8017 108.368 87.6257Z" fill="black"/>
<path d="M122.196 107.162L117.731 182.622L111.907 183.006L96.827 139.251L99.3008 87.3043L99.8216 76.3291L106.527 81.8688L109.838 84.5984L112.428 77.9693L117.242 82.1903L122.196 107.162Z" fill="#6C63FF"/>
<path opacity="0.1" d="M102.923 183.003C102.724 183.496 102.574 184.008 102.473 184.53C98.2355 183.872 94.1199 182.578 90.2635 180.693L90.1836 180.651L90.2103 180.172L90.2251 179.922L91.7046 177.148C91.7046 177.148 103.633 181.256 102.923 183.003Z" fill="black"/>
<path opacity="0.1" d="M113.431 184.542C112.348 184.727 111.255 184.852 110.158 184.917C110.093 183.429 110.054 182.405 110.054 182.405L113.345 181.738L113.431 184.542Z" fill="black"/>
<path opacity="0.1" d="M122.072 182.756C119.968 183.307 116.719 183.926 113.81 183.539L113.768 181.652L121.705 180.05C121.705 180.05 121.924 181.524 122.072 182.756Z" fill="black"/>
<path opacity="0.1" d="M113.756 183.884C101.624 185.968 90.5121 179.993 90.5121 179.993L90.6186 177.969C90.6186 177.969 90.8938 155.022 90.1303 153.262C89.3669 151.503 88.7721 142.582 89.2041 141.213C89.6362 139.843 87.6269 119.31 87.6269 119.31L87.3014 110.975L75.3878 106.12L80.7143 94.9514C81.4337 93.3856 82.0525 91.7748 82.5667 90.1292C83.4929 87.2298 87.7926 84.3811 87.7926 84.3811C87.7926 84.3811 92.2018 81.5354 93.9447 81.6425C95.6877 81.7497 97.9721 79.1242 97.9721 79.1242C99.6589 74.799 101.186 76.7577 101.186 76.7577C101.186 76.9631 101.186 76.7577 101.103 77.3977C100.511 82.1456 110.673 97.1483 110.818 97.4132L111.786 121.126L112.765 151.134L113.756 183.884Z" fill="black"/>
<path d="M113.431 183.884C101.298 185.968 90.1836 179.993 90.1836 179.993L90.2931 177.969C90.2931 177.969 90.5683 155.022 89.8019 153.263C89.0355 151.503 88.4436 142.582 88.8786 141.213C89.3136 139.843 87.3014 119.31 87.3014 119.31L86.9729 110.975L75.0534 106.102L80.3799 94.9336C81.0978 93.3671 81.7165 91.7564 82.2324 90.1113C83.1556 87.212 87.4582 84.3633 87.4582 84.3633C87.4582 84.3633 91.8674 81.5175 93.6074 81.6247C95.3474 81.7319 97.6348 79.1064 97.6348 79.1064C99.3245 74.7812 101.186 76.7399 101.186 76.7399C101.186 76.9453 101.008 77.0376 101.103 77.3799C102.405 81.9849 110.347 97.1305 110.492 97.3954L111.472 121.108L112.451 151.116L113.431 183.884Z" fill="white"/>
<path opacity="0.1" d="M110.161 98.0711C108.856 97.5234 101.943 89.5844 101.943 89.5844V87.7776C101.692 87.1822 100.197 87.5454 98.9842 87.9621L99.505 76.9869L100.097 77.4811C101.393 82.0831 110.01 97.8062 110.161 98.0711Z" fill="black"/>
<path d="M110.489 97.4132C109.181 96.8655 102.269 88.9266 102.269 88.9266V87.1197C102.017 86.5244 100.523 86.8876 99.3097 87.3043L99.8335 76.3291L100.425 76.8232C101.724 81.4253 110.344 97.1513 110.489 97.4132Z" fill="white"/>
<path opacity="0.1" d="M90.5121 137.007C90.6748 137.007 98.9487 136.131 98.9487 136.131C98.9487 136.131 103.959 146.041 103.63 148.452C103.302 150.863 102.707 152.998 100.692 152.62C98.6764 152.241 89.8463 152.917 89.8463 152.917L90.5121 137.007Z" fill="black"/>
<path d="M90.1836 136.349C90.3464 136.349 98.6202 135.474 98.6202 135.474C98.6202 135.474 103.627 145.386 103.302 147.794C102.976 150.202 102.375 152.34 100.363 151.962C98.3509 151.584 89.5178 152.259 89.5178 152.259L90.1836 136.349Z" fill="white"/>
<path d="M96.4186 131.696C96.4186 131.696 104.012 135.801 104.175 137.054C104.337 138.307 100.31 136.507 99.4399 136.289C98.8673 136.15 98.2844 136.059 97.697 136.015L91.894 136.173L96.4186 131.696Z" fill="#CF6F80"/>
<path opacity="0.1" d="M108.042 98.5831C108.483 98.5831 108.841 98.2233 108.841 97.7794C108.841 97.3355 108.483 96.9757 108.042 96.9757C107.601 96.9757 107.243 97.3355 107.243 97.7794C107.243 98.2233 107.601 98.5831 108.042 98.5831Z" fill="black"/>
<path d="M108.042 98.2556C108.483 98.2556 108.841 97.8958 108.841 97.4519C108.841 97.008 108.483 96.6482 108.042 96.6482C107.601 96.6482 107.243 97.008 107.243 97.4519C107.243 97.8958 107.601 98.2556 108.042 98.2556Z" fill="#3F3D56"/>
<path opacity="0.1" d="M109.513 133.375C109.954 133.375 110.312 133.015 110.312 132.571C110.312 132.127 109.954 131.768 109.513 131.768C109.072 131.768 108.714 132.127 108.714 132.571C108.714 133.015 109.072 133.375 109.513 133.375Z" fill="black"/>
<path d="M109.513 133.045C109.954 133.045 110.312 132.685 110.312 132.241C110.312 131.797 109.954 131.437 109.513 131.437C109.072 131.437 108.714 131.797 108.714 132.241C108.714 132.685 109.072 133.045 109.513 133.045Z" fill="#3F3D56"/>
<path opacity="0.1" d="M108.838 115.979C109.279 115.979 109.637 115.619 109.637 115.175C109.637 114.732 109.279 114.372 108.838 114.372C108.397 114.372 108.039 114.732 108.039 115.175C108.039 115.619 108.397 115.979 108.838 115.979Z" fill="black"/>
<path d="M108.838 115.652C109.279 115.652 109.637 115.292 109.637 114.848C109.637 114.404 109.279 114.044 108.838 114.044C108.397 114.044 108.039 114.404 108.039 114.848C108.039 115.292 108.397 115.652 108.838 115.652Z" fill="#3F3D56"/>
<path d="M127.256 135.849C127.256 135.849 127.801 136.67 127.256 137.054C126.712 137.438 127.309 138.367 127.309 138.367C127.309 138.367 125.951 139.168 126.549 139.888C127.147 140.608 126.768 143.862 126.768 143.862L125.134 146.583C125.134 146.583 125.232 148.336 125.238 150.705C125.238 154.403 125.022 159.6 123.826 161.969L123.992 181.41C123.992 181.41 118.272 183.512 113.484 182.872L112.774 151.676C112.774 151.676 113.81 133.985 114.191 130.592C114.415 128.83 114.506 127.054 114.464 125.278C114.464 125.278 114.301 119.968 113.753 117.503C113.753 117.503 113.162 106.826 113.102 103.87C113.076 102.456 113.15 98.33 113.233 94.4067C113.324 90.1173 113.428 86.0719 113.428 86.0719L112.348 77.4751C112.348 77.4751 113.428 77.365 113.753 77.8026C113.899 77.9396 114.058 78.0622 114.227 78.1687C116.091 79.4368 122.678 83.3363 122.678 83.3363C122.678 83.3363 126.324 84.7949 127.197 86.8845C128.07 88.9742 128.677 90.4566 129.1 91.052C129.523 91.6473 129.754 94.4454 129.754 94.4454C129.754 94.4454 131.008 99.5952 131.988 100.467C132.967 101.34 133.683 106.888 133.683 106.888L125.028 113.735C125.028 113.735 124.267 125.124 124.105 125.564C123.942 126.005 127.256 135.849 127.256 135.849Z" fill="white"/>
<path d="M127.585 135.849C127.585 135.849 128.126 136.67 127.585 137.054C127.043 137.438 127.635 138.367 127.635 138.367C127.635 138.367 126.285 139.177 126.877 139.897C127.469 140.617 127.096 143.871 127.096 143.871L125.463 146.592C125.463 146.592 125.56 148.345 125.569 150.714C125.569 154.412 125.353 159.609 124.158 161.978L124.321 181.419C124.321 181.419 118.592 183.521 113.81 182.881L113.102 151.685C113.102 151.685 114.138 133.994 114.52 130.601C114.743 128.839 114.834 127.063 114.789 125.287C114.789 125.287 114.626 119.977 114.082 117.512C114.082 117.512 113.49 106.835 113.428 103.879C113.401 102.465 113.478 98.3391 113.558 94.4157C113.65 90.1263 113.753 86.0809 113.753 86.0809L112.327 77.368C112.327 77.368 113.753 77.368 114.082 77.8116C114.226 77.9502 114.385 78.0729 114.555 78.1777C116.42 79.4458 123.01 83.3453 123.01 83.3453C123.01 83.3453 126.652 84.8039 127.525 86.8936C128.398 88.9832 129.005 90.4656 129.431 91.061C129.857 91.6563 130.082 94.4544 130.082 94.4544C130.082 94.4544 131.337 99.6042 132.316 100.476C133.296 101.349 134.003 106.885 134.003 106.885L125.347 113.732C125.347 113.732 124.587 125.121 124.421 125.561C124.256 126.002 127.585 135.849 127.585 135.849Z" fill="white"/>
<path opacity="0.1" d="M117.219 88.6081L118 90.9002L113.887 95.0676C113.978 90.7811 114.082 86.7328 114.082 86.7328L112.656 78.0199C112.656 78.0199 114.082 78.0199 114.41 78.4634C114.554 78.6017 114.713 78.7235 114.884 78.8266L118.382 88.9772L117.219 88.6081Z" fill="black"/>
<path d="M116.89 87.9503L117.674 90.2424L113.561 94.4098C113.653 90.1203 113.756 86.0749 113.756 86.0749L112.327 77.3621C112.327 77.3621 113.756 77.3621 114.082 77.8056C114.227 77.9434 114.386 78.0661 114.555 78.1717L118.056 88.3194L116.89 87.9503Z" fill="white"/>
<path opacity="0.1" d="M116.89 65.2706C116.892 66.3433 116.725 67.4095 116.393 68.4289C116.337 68.4377 116.28 68.4351 116.225 68.4213C116.17 68.4075 116.119 68.3828 116.073 68.3486C115.996 65.6695 114.686 63.1542 113.073 61.0139C112.62 60.3677 112.071 59.7954 111.445 59.3172C110.813 58.8392 110.026 58.6153 109.238 58.6891C108.35 58.8111 107.566 59.4184 106.669 59.4958C105.486 59.594 104.426 58.7695 103.251 58.7278C102.774 58.7324 102.303 58.8393 101.869 59.0416C101.436 59.2438 101.051 59.5367 100.739 59.9006C100.122 60.6351 99.6633 61.4906 99.3926 62.413C98.9273 63.8116 98.6739 65.2726 98.6409 66.7471C98.6262 67.5806 98.5463 68.6254 97.7769 68.929C97.8348 68.316 97.7655 67.6977 97.5735 67.113C97.3815 66.5283 97.0708 65.9902 96.6613 65.5326L96.6435 65.5147C96.6435 65.4314 96.6435 65.354 96.6435 65.2706C96.6205 63.9185 96.8654 62.5753 97.3639 61.3193C97.8624 60.0634 98.6046 58.9199 99.547 57.9555C100.489 56.9911 101.613 56.2251 102.853 55.7023C104.093 55.1794 105.424 54.9102 106.768 54.9102C108.113 54.9102 109.444 55.1794 110.683 55.7023C111.923 56.2251 113.047 56.9911 113.99 57.9555C114.932 58.9199 115.674 60.0634 116.173 61.3193C116.671 62.5753 116.916 63.9185 116.893 65.2706H116.89Z" fill="black"/>
<path d="M110.96 49.0981C109.422 48.3705 107.673 48.2328 106.042 48.7111C105.222 48.9552 104.45 49.3511 103.618 49.5505C101.843 49.9822 99.7713 49.5148 98.2474 50.5597C97.401 51.155 96.8921 52.0956 96.4186 53.0095L95.2349 55.2778C94.5898 56.519 93.9388 57.7812 93.6695 59.1475C93.4002 60.5138 93.563 62.0438 94.4241 63.1423C95.0514 63.943 95.9777 64.4461 96.6583 65.1992C97.066 65.6573 97.3753 66.1951 97.5668 66.7791C97.7582 67.363 97.8277 67.9804 97.7709 68.5926C98.5433 68.295 98.6173 67.2472 98.635 66.4137C98.668 64.9392 98.9214 63.4782 99.3866 62.0796C99.6567 61.157 100.115 60.3013 100.733 59.5672C101.045 59.2036 101.431 58.9109 101.864 58.7087C102.297 58.5065 102.768 58.3993 103.245 58.3944C104.429 58.4361 105.491 59.2576 106.663 59.1594C107.551 59.085 108.338 58.4748 109.232 58.3557C110.02 58.2807 110.807 58.5047 111.439 58.9838C112.065 59.4613 112.613 60.0337 113.064 60.6805C114.68 62.8208 115.991 65.3301 116.067 68.0151C116.402 68.2622 116.884 67.9407 117.05 67.5597C117.216 67.1787 117.222 66.7322 117.432 66.369C117.674 65.9493 118.139 65.726 118.503 65.4105C119.426 64.6098 119.657 63.2613 119.621 62.0379C119.586 60.8145 119.349 59.5732 119.58 58.3706C119.719 57.6323 120.033 56.9417 120.204 56.2124C120.376 55.4832 120.397 54.6646 119.991 54.0365C119.399 53.1137 118.154 52.9321 117.068 52.8458C115.834 52.7386 114.73 52.8755 113.943 51.8307C113.573 51.2855 113.157 50.7735 112.7 50.3007C112.543 50.1459 110.96 49.1636 110.96 49.0981Z" fill="#512E4E"/>
<path opacity="0.1" d="M78.7967 111.871L75.7044 106.12L74.7249 114.994C74.7249 114.994 75.2694 118.935 75.1599 119.539C75.0504 120.143 77.3911 125.561 77.3911 125.561C77.3911 125.561 85.1234 139.415 88.2809 140.129L98.9487 132.461L96.1197 128.847C96.1197 128.847 95.1402 128.463 94.8946 128.847C94.8946 128.847 89.6421 119.756 89.0976 119.099C88.5531 118.441 88.6596 117.128 88.6596 117.128C88.6596 117.128 87.8429 116.253 88.1152 115.431C88.3874 114.61 86.5379 111.761 86.5379 111.761L88.2246 110.174L78.7967 111.871Z" fill="black"/>
<path d="M75.8671 105.465L75.0504 106.12L74.0709 114.994C74.0709 114.994 74.6154 118.935 74.5059 119.539C74.3964 120.144 76.7401 125.561 76.7401 125.561C76.7401 125.561 84.4694 139.415 87.6269 140.129L98.2977 132.461L95.4657 128.847C95.4657 128.847 94.4862 128.463 94.2406 128.847C94.2406 128.847 88.9881 119.757 88.4436 119.099C87.8991 118.441 88.0086 117.128 88.0086 117.128C88.0086 117.128 87.1919 116.253 87.4641 115.431C87.7364 114.61 85.8839 111.761 85.8839 111.761L87.5707 110.175L75.8671 105.465Z" fill="white"/>
<path opacity="0.1" d="M126.549 140.227C127.141 140.951 126.768 144.198 126.768 144.198L125.134 146.919C125.134 146.919 125.232 148.675 125.238 151.042L122.492 151.905C122.244 151.983 121.981 152 121.724 151.955C121.468 151.91 121.227 151.804 121.02 151.646C120.813 151.488 120.646 151.282 120.534 151.046C120.422 150.81 120.368 150.55 120.376 150.289L120.849 134.926L127.256 137.391C126.712 137.772 127.309 138.706 127.309 138.706C127.309 138.706 125.951 139.504 126.549 140.227Z" fill="black"/>
<path d="M126.877 139.897C127.469 140.62 127.096 143.871 127.096 143.871L125.463 146.592C125.463 146.592 125.56 148.345 125.569 150.714L122.773 151.593C122.53 151.669 122.272 151.685 122.022 151.641C121.771 151.596 121.534 151.492 121.332 151.337C121.129 151.182 120.966 150.981 120.857 150.75C120.747 150.519 120.694 150.265 120.702 150.009L121.178 134.598L127.588 137.063C127.04 137.444 127.638 138.376 127.638 138.376C127.638 138.376 126.286 139.177 126.877 139.897Z" fill="white"/>
<path d="M128.999 132.574C128.999 132.574 128.564 135.369 127.475 135.533C126.386 135.697 125.898 140.055 124.812 139.9C123.726 139.745 124.445 135.849 124.483 135.093C124.522 134.337 123.3 131.205 124.214 130.494C125.128 129.782 128.023 130.494 128.023 130.494L128.999 132.574Z" fill="#CF6F80"/>
<path opacity="0.1" d="M131.316 111.05L133.37 106.882C133.37 106.882 134.187 110.058 134.187 111.755C134.187 113.452 135.329 113.619 135.329 113.619C135.329 113.619 136.58 115.107 135.921 116.19C135.261 117.274 134.994 119.971 134.994 119.971C134.994 119.971 135.21 125.118 134.231 125.829C133.251 126.54 133.047 128.24 133.047 128.24C133.047 128.24 131.248 131.47 131.304 132.238C131.36 133.006 128.801 138.206 128.801 138.206C128.801 138.206 130.053 131.744 122.758 128.952C122.758 128.952 122.702 126.758 123.246 126.156C123.791 125.555 124.64 125.281 124.108 122.242C123.575 119.203 123.954 115.571 123.954 114.842C123.954 114.113 125.587 109.564 125.587 109.564L131.316 111.05Z" fill="black"/>
<path d="M132.204 106.287L133.997 106.882C133.997 106.882 134.817 110.058 134.817 111.755C134.817 113.452 135.959 113.619 135.959 113.619C135.959 113.619 137.211 115.107 136.551 116.19C135.891 117.274 135.628 119.971 135.628 119.971C135.628 119.971 135.844 125.118 134.864 125.829C133.885 126.54 133.666 128.24 133.666 128.24C133.666 128.24 131.869 131.47 131.926 132.238C131.982 133.006 129.419 138.206 129.419 138.206C129.419 138.206 130.674 131.744 123.377 128.952C123.377 128.952 123.323 126.758 123.868 126.156C124.412 125.555 125.262 125.281 124.729 122.242C124.196 119.203 124.575 115.571 124.575 114.842C124.575 114.113 126.209 109.564 126.209 109.564L132.204 106.287Z" fill="white"/>
<path opacity="0.1" d="M92.5953 214.303C92.5953 214.303 95.4539 212.496 97.33 213.809C99.2061 215.122 92.5953 214.303 92.5953 214.303Z" fill="black"/>
<path opacity="0.1" d="M114.807 208.716C114.807 208.716 117.337 208.388 119.462 210.689C121.586 212.99 114.807 208.716 114.807 208.716Z" fill="black"/>
<g opacity="0.1">
<path opacity="0.1" d="M118.509 64.7585C118.145 65.074 117.677 65.3003 117.435 65.72C117.227 66.0802 117.222 66.5237 117.056 66.9107C116.89 67.2977 116.408 67.6132 116.073 67.3691C115.996 64.6901 114.683 62.1747 113.07 60.0315C112.619 59.3847 112.071 58.8123 111.445 58.3348C110.812 57.8558 110.024 57.6318 109.235 57.7067C108.347 57.8287 107.566 58.436 106.669 58.5104C105.485 58.6116 104.423 57.787 103.248 57.7454C102.771 57.7501 102.3 57.8575 101.867 58.0603C101.434 58.2631 101.05 58.5566 100.739 58.9212C100.121 59.6541 99.6626 60.5088 99.3926 61.4305C98.9276 62.8292 98.6742 64.2902 98.6409 65.7647C98.6232 66.5952 98.5462 67.6311 97.7828 67.9406C97.8005 68.1605 97.8005 68.3816 97.7828 68.6015C98.5522 68.3038 98.6291 67.256 98.6469 66.4225C98.6798 64.9481 98.9332 63.487 99.3985 62.0884C99.6686 61.1658 100.127 60.3101 100.745 59.576C101.056 59.2125 101.441 58.9198 101.874 58.7176C102.307 58.5154 102.777 58.4082 103.254 58.4032C104.438 58.4449 105.503 59.2665 106.675 59.1682C107.563 59.0938 108.35 58.4836 109.241 58.3645C110.03 58.2896 110.818 58.5136 111.451 58.9926C112.077 59.4701 112.625 60.0425 113.076 60.6893C114.688 62.8296 116.002 65.339 116.079 68.024C116.414 68.2711 116.896 67.9496 117.062 67.5685C117.227 67.1875 117.233 66.741 117.441 66.3779C117.683 65.9581 118.151 65.7349 118.515 65.4194C119.438 64.6186 119.669 63.2702 119.633 62.0467C119.633 62.008 119.633 61.9693 119.633 61.9336C119.577 62.9933 119.296 64.0739 118.509 64.7585Z" fill="black"/>
<path opacity="0.1" d="M96.6642 64.5472C95.9836 63.7941 95.0544 63.291 94.43 62.4932C93.9043 61.787 93.604 60.9369 93.5689 60.0553C93.4758 61.157 93.7816 62.2554 94.43 63.1481C95.0544 63.9488 95.9836 64.4519 96.6642 65.205C97.3177 65.9417 97.71 66.8755 97.7798 67.8603C97.8251 67.2609 97.7497 66.6585 97.558 66.0892C97.3663 65.5199 97.0623 64.9954 96.6642 64.5472Z" fill="black"/>
<path opacity="0.1" d="M120.21 55.5605C120.036 56.2898 119.725 56.9833 119.583 57.7186C119.499 58.2099 119.468 58.7089 119.491 59.2069C119.501 58.9233 119.532 58.6407 119.583 58.3616C119.725 57.6233 120.036 56.9327 120.21 56.2034C120.312 55.8012 120.345 55.3845 120.308 54.9711C120.29 55.1696 120.257 55.3666 120.21 55.5605Z" fill="black"/>
</g>
<path opacity="0.1" d="M39.2771 226.406C55.2017 226.406 68.1112 224.321 68.1112 221.748C68.1112 219.175 55.2017 217.089 39.2771 217.089C23.3524 217.089 10.4429 219.175 10.4429 221.748C10.4429 224.321 23.3524 226.406 39.2771 226.406Z" fill="#6C63FF"/>
<path d="M40.2062 132.506H38.3508V174.528H40.2062V132.506Z" fill="#535461"/>
<path d="M51.8653 174.4L51.7499 176.293L51.5842 178.973L51.5162 180.086L51.3534 182.765L51.2824 183.878L51.1167 186.557L49.2465 216.941C49.1652 218.248 48.5918 219.475 47.6429 220.372C46.694 221.269 45.441 221.768 44.1389 221.769H34.4151C33.1133 221.768 31.8607 221.269 30.9123 220.372C29.9639 219.475 29.3911 218.248 29.3106 216.941L27.4492 186.536L27.2835 183.857L27.2155 182.744L27.0497 180.065L26.9817 178.952L26.816 176.273L26.6976 174.379C26.677 174.015 26.7307 173.65 26.8553 173.308C26.9799 172.965 27.1728 172.651 27.4222 172.386C27.6716 172.121 27.9722 171.91 28.3056 171.766C28.6389 171.622 28.998 171.548 29.3609 171.549H49.2494C49.6109 171.552 49.9678 171.629 50.2983 171.777C50.6288 171.924 50.9257 172.138 51.1709 172.405C51.416 172.672 51.6041 172.987 51.7235 173.33C51.843 173.673 51.8912 174.038 51.8653 174.4Z" fill="#3F3D56"/>
<path d="M51.7499 176.293L51.5842 178.964H26.9699L26.8042 176.293H51.7499Z" fill="#9D9CB5"/>
<path d="M51.5162 180.077L51.3534 182.75H27.2036L27.0379 180.077H51.5162Z" fill="#9D9CB5"/>
<path d="M51.2824 183.866L51.1196 186.536H27.4374L27.2717 183.866H51.2824Z" fill="#9D9CB5"/>
<path d="M23.9722 148.256C34.7761 156.12 39.2859 168.42 39.2859 168.42C39.2859 168.42 26.2656 167.971 15.4587 160.106C4.65181 152.242 0.150909 139.945 0.150909 139.945C0.150909 139.945 13.1653 140.391 23.9722 148.256Z" fill="#6C63FF"/>
<path d="M0.142044 139.945C0.142044 139.945 13.6595 147.491 17.9947 153.739C22.3299 159.987 39.2859 168.42 39.2859 168.42" stroke="#535461" stroke-width="2" stroke-miterlimit="10"/>
<path d="M30.947 132.414C36.8269 136.691 39.2859 143.386 39.2859 143.386C39.2859 143.386 32.1987 143.142 26.3159 138.864C20.4331 134.587 17.9799 127.889 17.9799 127.889C17.9799 127.889 25.0642 128.133 30.947 132.414Z" fill="#6C63FF"/>
<path d="M17.9799 127.889C17.9799 127.889 25.3364 131.997 27.6949 135.396C30.0533 138.796 39.2859 143.386 39.2859 143.386" stroke="#535461" stroke-width="2" stroke-miterlimit="10"/>
<path d="M47.8231 143.046C41.0673 150.515 39.6381 160.276 39.6381 160.276C39.6381 160.276 49.1636 157.924 55.9135 150.452C62.6634 142.981 64.0986 133.223 64.0986 133.223C64.0986 133.223 54.5789 135.578 47.8231 143.046Z" fill="#6C63FF"/>
<path d="M64.1045 133.226C64.1045 133.226 55.3039 140.882 53.0668 146.157C50.8296 151.432 39.6381 160.276 39.6381 160.276" stroke="#535461" stroke-width="2" stroke-miterlimit="10"/>
<path d="M295.819 140.418C295.819 140.418 290.934 115.967 292.804 112.925C292.804 112.925 292.872 110.097 292.759 106.492C292.759 106.355 292.759 106.218 292.759 106.079C293.088 106.299 293.432 106.498 293.786 106.674C295.509 107.564 297.488 107.821 299.379 107.4L297.899 105.742C297.544 105.346 297.175 104.918 297.098 104.394C297.021 103.87 297.234 103.402 297.417 102.935C298.823 99.363 298.897 94.8712 296.189 92.1445C293.902 89.8524 293.345 86.8936 290.863 84.8009C289.049 83.2679 288.051 81.0205 287.11 78.8475C286.314 77.0108 285.512 75.1593 285.057 73.2125C284.702 71.6914 284.56 70.1167 284.071 68.6314C283.583 67.146 282.669 65.7023 281.239 65.0385C280.73 64.8033 280.165 64.6693 279.701 64.3568C279.091 63.943 278.724 63.2703 278.283 62.6809C276.043 59.7042 268.542 61.4575 264.991 62.666C264.025 62.9704 263.131 63.4686 262.363 64.1306L262.395 64.077C262.422 64.0323 262.455 63.9877 262.484 63.943C262.095 64.2592 261.76 64.6361 261.49 65.0593C260.972 65.8838 260.756 66.8453 260.324 67.7383C259.803 68.7951 256.906 71.745 258.152 72.9327C258.239 73.0125 258.339 73.0769 258.448 73.1232C258.916 73.319 259.43 73.3708 259.927 73.2721L259.874 73.4001C259.449 74.448 259.231 75.5693 259.232 76.7013C259.232 81.592 263.242 85.557 268.192 85.557C269.123 85.5579 270.048 85.4143 270.936 85.1313C270.956 85.2444 270.974 85.3576 270.995 85.4707C270.995 85.5153 271.01 85.56 271.015 85.6046L270.859 85.8249C270.851 85.8113 270.842 85.7984 270.832 85.7862L266.186 92.3171C265.476 92.8202 261.386 95.7969 261.156 98.0295C260.913 100.473 260.67 103.334 260.67 103.334L260.638 103.947C260.435 104.118 260.197 104.242 259.942 104.312C259.686 104.381 259.419 104.394 259.158 104.349C257.708 104.111 257.708 109.707 257.708 109.707C257.708 109.707 256.743 110.6 256.081 109.826C255.418 109.052 253.666 111.675 253.666 111.675L242.687 112.151L242.436 112.166L241.844 110.323C241.78 110.129 241.643 109.968 241.462 109.875C241.281 109.782 241.07 109.764 240.876 109.826C240.83 109.841 240.786 109.86 240.743 109.883L240.702 109.907L240.625 109.96L240.586 109.996C240.565 110.015 240.545 110.036 240.527 110.058L240.492 110.1L240.474 110.118C240.406 110.213 240.36 110.323 240.342 110.439C240.323 110.554 240.332 110.673 240.367 110.785L240.876 112.365C238.758 112.794 236.591 114.003 238.358 117.331L229.404 115.667L232.301 118.113L247.256 121.218C247.058 121.575 247.188 122.093 247.807 122.823C250.47 125.969 255.323 126.823 257.276 127.044C257.792 128.204 258.436 129.303 259.197 130.318L259.028 133.452C259.028 133.452 254.083 157.344 253.178 158.555C253.635 158.034 254.053 157.48 254.429 156.897C252.994 161.806 250.988 168.524 250.461 169.53C249.615 171.138 248.831 177.642 249.795 178.059C250.091 178.187 250.938 178.124 252.145 178.032V178.571L252.092 198.988C252.092 198.988 252.334 211.511 251.668 212.705C251.003 213.898 250.825 216.402 250.825 216.402C250.825 216.402 248.162 221.34 246.052 223.326C246.038 223.341 246.022 223.355 246.005 223.367L245.939 222.903C245.939 222.903 243.403 226.124 237.793 225.942C237.793 225.942 234.416 228.151 239.423 228.27C244.43 228.389 250.825 228.091 250.825 228.091C250.825 228.091 255.29 221.245 259.031 222.138V227.326H260.176V222.055C260.707 221.703 261.162 221.246 261.512 220.713C261.863 220.179 262.102 219.579 262.215 218.95C262.313 218.301 262.241 217.638 262.007 217.026C261.772 216.413 261.383 215.873 260.877 215.458C260.65 215.252 260.468 215 260.342 214.719C260.217 214.439 260.15 214.135 260.146 213.827L260.105 213.863C260.105 213.759 260.078 213.651 260.067 213.541C259.738 210.862 259.327 205.334 260.78 201.244C262.771 195.636 263.375 187.825 261.925 183.176C261.457 181.689 261.073 180.178 260.774 178.648C260.738 178.455 260.706 178.27 260.676 178.097C261.667 178.232 262.649 178.431 263.615 178.693C266.973 179.624 274.321 179.797 280.594 179.746C280.609 179.919 280.627 180.101 280.648 180.282C280.759 181.544 280.993 182.793 281.346 184.009C282.133 186.391 282.494 196.889 282.494 196.889C282.494 196.889 283.509 205.522 282.956 209.034C282.66 210.987 282.364 212.949 282.195 214.919V214.958C282.195 214.958 280.532 219.721 279.316 222.308C279.286 222.373 279.254 222.439 279.224 222.501C278.9 222.531 278.581 222.602 278.274 222.712C278.274 222.712 276.644 225.987 275.019 226.529C273.395 227.07 273.933 228.853 277.611 228.199C281.29 227.544 286.844 227.008 286.844 227.008L287.084 223.668L288.214 222.245L287.918 225.576L289.123 225.338L288.963 221.287L290.812 218.959C290.812 218.959 293.046 216.958 289.726 213.023V213.11C289.691 213.053 289.658 212.993 289.62 212.937V212.919C289.069 212.062 288.631 210.463 289.433 207.626C290.883 202.501 291.727 197.848 291.727 197.848C291.727 197.848 294.964 185.384 291.073 179.487H291.244C290.846 178.658 290.564 177.776 290.407 176.868C290.387 176.761 290.369 176.651 290.354 176.538C293.233 176.371 296.059 175.847 298.364 174.716C298.355 174.704 296.967 145.127 295.819 140.418ZM259.265 119.789V119.849L258.673 119.879L259.265 119.789ZM257.235 120.072C257.137 120.094 257.046 120.138 256.968 120.2C256.714 120.562 256.554 120.983 256.504 121.424L255.58 121.215C255.58 121.215 254.932 121.075 254 120.917L253.559 120.471C254.773 120.37 256.033 120.221 257.235 120.072Z" fill="url(#paint1_linear)"/>
<path d="M287.782 221.328L287.43 225.546L288.611 225.308L288.433 220.733L287.782 221.328Z" fill="#1D2366"/>
<path d="M260.845 201.301C259.421 205.379 259.824 210.883 260.143 213.556C260.262 214.544 260.371 215.146 260.371 215.146C260.371 215.146 258.244 220.021 258.066 220.206C257.889 220.391 251.805 224.126 251.805 224.126L247.552 226.624C247.552 226.624 243.238 224.722 245.306 224.067C245.729 223.896 246.109 223.635 246.422 223.302C248.493 221.322 251.094 216.402 251.094 216.402C251.094 216.402 251.272 213.904 251.923 212.717C252.574 211.529 252.337 199.047 252.337 199.047L252.387 178.702V176.049L260.481 176.109C260.532 177.009 260.649 177.905 260.83 178.788C261.12 180.312 261.497 181.819 261.957 183.301C263.384 187.941 262.792 195.714 260.845 201.301Z" fill="#FFB0B1"/>
<path opacity="0.1" d="M260.371 215.146C260.371 215.146 258.244 220.022 258.066 220.206C257.889 220.391 251.805 224.126 251.805 224.126L247.552 226.624C247.552 226.624 243.238 224.722 245.306 224.067C245.729 223.896 246.109 223.635 246.422 223.302L246.605 224.603L248.023 224.543L260.155 213.562C260.262 214.544 260.371 215.146 260.371 215.146Z" fill="black"/>
<path d="M260.223 213.839L248.023 224.894L246.605 224.954L246.309 222.87C246.309 222.87 243.83 226.079 238.32 225.901C238.32 225.901 235.011 228.1 239.915 228.219C244.818 228.338 251.08 228.041 251.08 228.041C251.08 228.041 255.453 221.194 259.114 222.087V227.258H260.238V222.04C260.761 221.686 261.207 221.229 261.55 220.697C261.893 220.165 262.125 219.569 262.233 218.944C262.33 218.3 262.261 217.643 262.033 217.034C261.804 216.425 261.424 215.885 260.928 215.467C260.706 215.258 260.53 215.006 260.408 214.726C260.287 214.446 260.224 214.144 260.223 213.839Z" fill="#1D2366"/>
<path d="M288.907 207.659C288.119 210.487 288.549 212.08 289.087 212.934V212.952C289.778 214.007 290.258 215.186 290.502 216.426L290.549 216.694L284.998 224.835L281.985 226.026C281.985 226.026 277.141 224.362 278.026 223.885C278.248 223.769 278.594 223.15 278.99 222.296C280.174 219.721 281.808 214.97 281.808 214.97V214.931C281.979 212.97 282.251 211.014 282.553 209.067C283.095 205.564 282.101 196.964 282.101 196.964C282.101 196.964 281.745 186.507 280.976 184.128C280.629 182.919 280.398 181.679 280.287 180.425C280.127 178.937 280.091 177.71 280.091 177.71C280.091 177.71 283.281 173.245 289.129 178.068C289.596 178.452 290.008 178.901 290.351 179.401C294.39 185.182 291.138 197.916 291.138 197.916C291.138 197.916 290.324 202.548 288.907 207.659Z" fill="#FFB0B1"/>
<path opacity="0.1" d="M290.558 216.694L285.006 224.835L281.994 226.026C281.994 226.026 277.15 224.362 278.035 223.885C278.257 223.769 278.603 223.15 278.999 222.296C281.05 222.278 282.112 224.243 282.112 224.243L284.711 223.826C284.711 223.826 288.137 217.051 288.907 216.637C289.676 216.223 289.025 213.544 289.025 213.544V212.863C289.046 212.886 289.063 212.913 289.087 212.937V212.955C289.778 214.01 290.258 215.189 290.502 216.429L290.558 216.694Z" fill="black"/>
<path d="M282.29 224.418C282.29 224.418 280.81 221.686 277.975 222.695C277.975 222.695 276.38 225.969 274.785 226.499C273.19 227.029 273.723 228.815 277.327 228.163C280.932 227.511 286.365 226.972 286.365 226.972L286.601 223.641L290.265 218.947C290.265 218.947 292.449 216.956 289.2 213.035V213.717C289.2 213.717 289.851 216.396 289.081 216.81C288.312 217.223 284.897 224.001 284.897 224.001L282.29 224.418Z" fill="#1D2366"/>
<path opacity="0.1" d="M260.49 176.103C260.541 177.003 260.657 177.899 260.839 178.782C257.507 178.291 254.415 178.535 252.388 178.696V176.043L260.49 176.103Z" fill="black"/>
<path opacity="0.1" d="M290.679 180.142C290.679 180.142 285.944 180.375 280.298 180.422C280.139 178.934 280.103 177.707 280.103 177.707C280.103 177.707 283.293 173.242 289.14 178.065C289.608 178.449 290.019 178.898 290.363 179.398C290.454 179.652 290.56 179.9 290.679 180.142Z" fill="black"/>
<path d="M290.679 179.607C290.679 179.607 269.941 180.616 263.621 178.833C257.3 177.05 251.035 178.594 250.091 178.181C249.147 177.767 249.914 171.287 250.742 169.682C251.571 168.078 256.116 151.852 256.116 151.852L260.49 128.913L265.097 127.636L265.423 127.544L273.451 125.317L279.334 123.683C279.334 123.683 291.031 169.623 290.028 173.01C289.664 174.307 289.605 175.672 289.857 176.996C290.01 177.9 290.287 178.779 290.679 179.607Z" fill="#1D2366"/>
<path d="M245.244 113.226C245.244 113.226 241.101 117.691 244.238 120.179C247.375 122.668 249.437 120.417 249.437 120.417L245.244 113.226Z" fill="#C7DAF5"/>
<path opacity="0.1" d="M245.244 113.226C245.244 113.226 241.101 117.691 244.238 120.179C247.375 122.668 249.437 120.417 249.437 120.417L245.244 113.226Z" fill="black"/>
<path d="M278.715 83.8691C278.715 83.8691 278.23 84.3335 277.499 85.0181C276.457 85.9975 274.916 87.4293 273.549 88.6289C271.655 90.2869 270.092 91.5044 270.651 90.4655C271.211 89.4267 271.104 87.6168 270.826 85.9231C270.805 85.81 270.788 85.6968 270.767 85.5867C270.537 84.3428 270.231 83.1141 269.853 81.9075C269.853 81.9075 272.912 77.9306 274.605 76.3618C275.235 75.7665 275.676 75.5224 275.703 75.9362C275.732 76.4928 276.147 77.7222 276.662 79.026C276.676 79.0677 276.691 79.1064 276.709 79.1481C277.052 80.0411 277.44 80.9579 277.78 81.7497C278.301 82.9642 278.715 83.8691 278.715 83.8691Z" fill="#FFB0B1"/>
<path opacity="0.1" d="M276.709 79.1481C276.421 80.7038 275.724 82.1534 274.689 83.3452C273.654 84.5369 272.32 85.4273 270.826 85.9231C270.591 84.5643 270.266 83.2228 269.853 81.9075C269.853 81.9075 275.614 74.4211 275.703 75.9362C275.724 76.5107 276.173 77.7848 276.709 79.1481Z" fill="black"/>
<path opacity="0.1" d="M270.252 87.9234L270.998 86.8667C270.998 86.8667 271.492 89.897 273.309 88.5605C275.126 87.2239 275.215 98.6188 275.215 98.6188L273.264 127.948L259.173 127.1L259.572 112.928L261.167 105.784L265.112 95.398L267.459 91.9658L270.252 87.9234Z" fill="black"/>
<path d="M275.215 98.8004L273.439 125.32L273.253 128.13L265.396 127.657L265.1 127.639L259.182 127.282L259.581 113.107L261.176 105.962L265.121 95.5766L267.467 92.1445L270.261 88.0872L271.007 87.0334C271.007 87.0334 271.501 90.0638 273.318 88.7272L273.356 88.7004C275.132 87.5693 275.215 98.8004 275.215 98.8004Z" fill="#1D2366"/>
<path d="M261.375 103.48C261.375 103.48 260.667 104.968 259.247 104.727C257.826 104.486 257.829 110.085 257.829 110.085C257.829 110.085 256.885 110.978 256.234 110.204C255.583 109.43 253.867 112.047 253.867 112.047L243.113 112.523C243.113 112.523 247.898 114.723 246.96 121.379C246.96 121.379 263.206 120.367 263.739 118.822C264.272 117.277 261.375 103.48 261.375 103.48Z" fill="white"/>
<path opacity="0.03" d="M261.375 103.48C261.375 103.48 260.667 104.968 259.247 104.727C257.826 104.486 257.829 110.085 257.829 110.085C257.829 110.085 256.885 110.978 256.234 110.204C255.583 109.43 253.867 112.047 253.867 112.047L243.113 112.523C243.113 112.523 247.898 114.723 246.96 121.379C246.96 121.379 263.206 120.367 263.739 118.822C264.272 117.277 261.375 103.48 261.375 103.48Z" fill="black"/>
<path d="M230.123 116.021L232.958 118.456L256.294 123.388L253.4 120.417L230.123 116.021Z" fill="white"/>
<path d="M270.296 88.8611C269.909 89.4565 268.799 92.5046 267.873 95.1658C267.1 97.3835 266.455 99.3332 266.455 99.3332C266.455 99.3332 264.949 109.198 264.18 110.981C263.41 112.764 263.828 119.718 263.828 119.718L260.96 136.891C260.96 136.891 259.661 145.746 257.655 151.036C255.675 156.242 253.471 158.683 253.402 158.76C254.29 157.552 259.128 133.756 259.128 133.756L260.726 103.745C260.726 103.745 260.96 100.893 261.197 98.4551C261.434 96.0172 266.228 92.6892 266.228 92.6892L270.85 86.0779C271.314 86.703 271.004 87.7925 270.296 88.8611Z" fill="white"/>
<path d="M258.244 127.431C258.244 127.431 251.438 127.133 248.141 123.15C244.845 119.167 255.761 121.56 255.761 121.56L258.599 122.215L258.244 127.431Z" fill="#FFB0B1"/>
<path opacity="0.1" d="M290.028 173.013C289.664 174.31 289.605 175.675 289.856 176.999C282.432 177.529 274.49 175.511 274.49 175.511C273.01 176.88 269.113 178.898 269.113 178.898L266.988 152.405C265.63 148.833 265.097 130.119 265.097 130.119C265.097 130.119 265.218 129.139 265.393 127.672C265.393 127.636 265.393 127.597 265.408 127.562C265.938 123.463 266.988 115.768 267.503 114.729C268.213 113.3 265.319 109.499 265.319 109.499L266.636 98.2021L266.796 96.8388C269.571 95.5915 271.699 91.6087 271.699 91.6087L273.332 88.7302C275.108 87.5841 275.2 98.8153 275.2 98.8153L273.424 125.335L279.307 123.701C279.307 123.701 291.031 169.626 290.028 173.013Z" fill="black"/>
<path d="M297.648 174.844C289.555 178.886 274.845 175.141 274.845 175.141C273.365 176.511 269.468 178.529 269.468 178.529L267.34 152.036C265.985 148.464 265.452 129.749 265.452 129.749C265.452 129.749 267.163 115.786 267.873 114.36C268.08 113.943 267.979 113.324 267.734 112.657C266.526 109.483 266.082 106.067 266.438 102.688L267.006 97.833L267.163 96.4727C269.941 95.2225 272.069 91.2396 272.069 91.2396L273.549 88.632L276.271 83.8276L277.561 81.5533L277.78 81.7528L279.452 83.2769C279.452 83.2769 280.162 83.8722 281.228 84.7652C283.545 86.7299 287.548 90.1888 289.614 92.3053C291.431 94.1687 292.005 101.417 292.171 106.873C292.28 110.466 292.215 113.282 292.215 113.282C290.383 116.316 295.174 140.668 295.174 140.668C296.29 145.374 297.648 174.844 297.648 174.844Z" fill="white"/>
<path opacity="0.03" d="M282.112 91.18C282.112 91.18 276.558 101.816 277.203 105.858C277.848 109.901 279.683 114.476 278.798 115.544C278.494 115.949 278.101 116.278 277.65 116.505C277.199 116.731 276.701 116.85 276.197 116.851C275.309 116.911 272.942 118.575 272.942 118.753C272.942 118.932 270.755 118.932 268.799 119.765C266.843 120.599 263.955 121.072 263.955 121.072C263.955 121.072 258.332 120.894 257.809 121.429C257.285 121.965 256.746 125.171 257.868 127.728C258.989 130.285 260.235 132.193 261.176 132.542C262.117 132.89 268.089 130.878 272.933 130.401C277.777 129.925 283.036 126.064 283.036 126.064C283.036 126.064 288.827 123.98 289.842 120.477C290.857 116.973 288.602 97.7169 288.602 97.7169C288.602 97.7169 286.897 88.7421 282.112 91.18Z" fill="black"/>
<path opacity="0.03" d="M281.402 90.287C281.402 90.287 275.848 100.926 276.499 104.965C277.15 109.005 278.979 113.583 278.091 114.654C277.788 115.06 277.396 115.389 276.945 115.616C276.494 115.842 275.997 115.961 275.493 115.961C274.605 116.021 272.238 117.685 272.238 117.863C272.238 118.042 270.051 118.042 268.095 118.872C266.139 119.703 263.251 120.179 263.251 120.179C263.251 120.179 257.628 120.001 257.107 120.536C256.587 121.072 256.042 124.281 257.167 126.835C258.291 129.389 259.534 131.3 260.475 131.649C261.416 131.997 267.388 129.985 272.232 129.511C277.076 129.038 282.334 125.171 282.334 125.171C282.334 125.171 288.122 123.087 289.126 119.587C290.129 116.086 287.886 96.8238 287.886 96.8238C287.886 96.8238 286.187 87.852 281.402 90.287Z" fill="black"/>
<path d="M281.938 90.6442C281.938 90.6442 276.383 101.283 277.034 105.322C277.685 109.362 279.514 113.94 278.629 115.009C278.327 115.415 277.934 115.745 277.482 115.972C277.031 116.199 276.533 116.318 276.028 116.318C275.141 116.378 272.773 118.042 272.773 118.218C272.773 118.393 270.589 118.396 268.63 119.23C266.671 120.063 263.786 120.537 263.786 120.537C263.786 120.537 258.164 120.358 257.64 120.894C257.116 121.43 256.578 124.638 257.699 127.192C258.821 129.746 260.067 131.658 261.008 132.006C261.949 132.354 267.92 130.342 272.764 129.866C277.609 129.389 282.867 125.528 282.867 125.528C282.867 125.528 288.658 123.445 289.673 119.941C290.688 116.438 288.448 97.1811 288.448 97.1811C288.448 97.1811 286.72 88.2212 281.938 90.6442Z" fill="white"/>
<path opacity="0.1" d="M281.816 119.179C281.816 119.179 277.378 118.286 278.922 119.774C280.467 121.263 280.458 122.567 282.349 122.507C284.24 122.447 281.816 119.179 281.816 119.179Z" fill="black"/>
<path opacity="0.1" d="M289.318 151.203C289.318 151.203 287.312 152.569 291.15 155.718C294.988 158.868 289.318 151.203 289.318 151.203Z" fill="black"/>
<path opacity="0.1" d="M285.489 162.434C285.489 162.612 284.779 168.983 287.436 170.575C290.093 172.168 285.489 162.434 285.489 162.434Z" fill="black"/>
<path d="M243.297 112.508C241.154 112.583 236.526 113.24 238.926 117.744C241.048 121.73 244.614 119.066 246.62 117.045C246.131 115.16 244.941 113.537 243.297 112.508Z" fill="#FFB0B1"/>
<path d="M246.647 117.009L246.736 116.917L246.647 117.009Z" fill="#FFB0B1"/>
<path opacity="0.1" d="M281.228 84.9467C278.955 86.5095 277.049 87.8282 276.676 88.102C275.658 88.8611 273.717 93.3173 272.465 95.5915C271.468 97.4222 268.228 97.8925 267.006 98.0086L267.163 96.6482C269.941 95.398 272.069 91.4151 272.069 91.4151L277.561 81.7289L279.452 83.4584C279.452 83.4584 280.162 84.0537 281.228 84.9467Z" fill="black"/>
<path d="M281.228 84.7681C278.955 86.3309 277.049 87.6496 276.676 87.9264C275.658 88.6825 273.717 93.1387 272.465 95.4129C271.468 97.2436 268.228 97.7139 267.006 97.83L267.163 96.4696C269.941 95.2194 272.069 91.2365 272.069 91.2365L277.561 81.5503L279.452 83.2738C279.452 83.2738 280.162 83.8632 281.228 84.7681Z" fill="#DCE7FF"/>
<path d="M276.854 77.1834C276.855 78.9703 276.316 80.7154 275.309 82.1873C274.12 83.9276 272.349 85.1813 270.32 85.7209C268.29 86.2605 266.135 86.0503 264.246 85.1283C262.357 84.2064 260.859 82.6339 260.024 80.6961C259.189 78.7583 259.072 76.5836 259.695 74.5666C260.318 72.5496 261.638 70.824 263.418 69.7028C265.197 68.5816 267.317 68.1392 269.393 68.4557C271.468 68.7723 273.363 69.8269 274.732 71.4282C276.101 73.0295 276.854 75.0714 276.854 77.1834Z" fill="#FFB0B1"/>
<path opacity="0.1" d="M292.171 106.876C290.969 106.133 289.99 105.075 289.339 103.816C288.844 102.834 288.516 101.7 287.673 101.003C286.912 100.378 285.897 100.226 284.95 99.9464C281.837 99.0207 279.227 96.163 279.13 92.9005C279.082 91.3645 279.559 89.8315 279.343 88.3104C279.22 87.4495 278.879 86.6347 278.354 85.9439C278.093 85.6135 277.807 85.304 277.499 85.0182C277.085 84.6252 276.65 84.2442 276.271 83.8275C276.032 83.5694 275.824 83.2848 275.65 82.9791C275.509 82.729 275.395 82.4645 275.309 82.1903C274.717 80.3685 275.256 78.2074 274.605 76.3648L274.569 76.2636C274.324 75.6087 273.824 74.9539 273.128 74.9033C272.433 74.8527 271.838 75.4331 271.175 75.6921C269.787 76.2339 268.29 75.3111 267.133 74.3704C265.976 73.4298 264.671 72.3552 263.2 72.5636C262.227 72.7035 261.457 73.3702 260.561 73.7155C260.358 73.7944 260.149 73.8551 259.936 73.8971C260.695 71.9935 262.089 70.4152 263.879 69.4333C265.669 68.4514 267.743 68.1272 269.745 68.5164C271.747 68.9056 273.551 69.9839 274.849 71.5661C276.146 73.1482 276.855 75.1355 276.854 77.1864C276.855 77.8057 276.79 78.4234 276.662 79.029C276.676 79.0707 276.691 79.1094 276.709 79.151C277.052 80.0441 277.44 80.9609 277.78 81.7527L279.452 83.2768C279.452 83.2768 280.162 83.8721 281.228 84.7651C283.545 86.7298 287.548 90.1887 289.614 92.3052C291.431 94.1746 291.999 101.42 292.171 106.876Z" fill="black"/>
<path d="M260.457 68.2771C260.88 67.4109 261.09 66.4405 261.596 65.6189C262.339 64.4282 263.635 63.6661 264.967 63.2047C268.444 61.9992 275.792 60.2489 277.987 63.2047C278.419 63.8001 278.777 64.4609 279.375 64.8717C279.831 65.1843 280.381 65.3182 280.881 65.5534C282.281 66.2142 283.175 67.655 283.651 69.1255C284.128 70.596 284.27 72.1736 284.619 73.6888C285.066 75.6326 285.85 77.4752 286.631 79.3058C287.551 81.4669 288.528 83.7084 290.303 85.2355C292.727 87.3192 293.263 90.2691 295.511 92.5552C298.175 95.27 298.089 99.75 296.716 103.307C296.535 103.774 296.331 104.263 296.402 104.76C296.473 105.257 296.84 105.709 297.186 106.105L298.642 107.757C295.198 108.594 291.301 106.784 289.697 103.608C289.203 102.625 288.874 101.494 288.028 100.795C287.27 100.17 286.252 100.021 285.308 99.741C282.195 98.8123 279.585 95.9517 279.488 92.6892C279.44 91.1562 279.917 89.6232 279.701 88.105C279.58 87.2384 279.239 86.4179 278.709 85.7236C277.896 84.655 276.668 83.9376 276.005 82.7469C274.883 80.7555 275.735 78.1687 274.928 76.0314C274.679 75.3766 274.182 74.7217 273.486 74.6711C272.791 74.6205 272.196 75.2009 271.53 75.4599C270.146 76.0017 268.648 75.0819 267.491 74.1383C266.334 73.1946 265.029 72.123 263.555 72.3344C262.582 72.4713 261.815 73.1381 260.919 73.4863C260.256 73.7423 258.913 73.9716 258.333 73.409C257.107 72.2748 259.945 69.3368 260.457 68.2771Z" fill="#591D4B"/>
<path opacity="0.1" d="M290.519 102.626C290.022 101.643 289.697 100.512 288.85 99.8155C288.093 99.1904 287.075 99.0386 286.128 98.7587C283.018 97.833 280.408 94.9724 280.307 91.7099C280.26 90.1769 280.736 88.6409 280.523 87.1227C280.399 86.2616 280.058 85.4469 279.532 84.7562C278.715 83.6876 277.487 82.9702 276.827 81.7795C275.706 79.7911 276.558 77.2043 275.747 75.064C275.502 74.4121 275.002 73.7573 274.309 73.7037C273.617 73.6501 273.016 74.2365 272.353 74.4955C270.968 75.0372 269.468 74.1145 268.314 73.1738C267.16 72.2332 265.849 71.1586 264.378 71.3669C263.405 71.5068 262.635 72.1736 261.741 72.5189C261.079 72.7749 259.732 73.0071 259.152 72.4445C257.933 71.2538 260.771 68.3217 261.28 67.268C261.703 66.3988 261.913 65.4314 262.422 64.6098C262.449 64.5651 262.478 64.5205 262.508 64.4758C262.127 64.7931 261.799 65.1688 261.534 65.5891C261.028 66.4107 260.818 67.3752 260.395 68.2473C259.883 69.3011 257.045 72.2421 258.267 73.4239C258.859 73.9894 260.191 73.7572 260.854 73.5012C261.741 73.153 262.517 72.4862 263.49 72.3493C264.97 72.1379 266.272 73.2125 267.426 74.1531C268.58 75.0938 270.089 76.0166 271.468 75.4748C272.131 75.2158 272.711 74.6324 273.421 74.686C274.132 74.7396 274.605 75.3915 274.862 76.0463C275.67 78.1836 274.818 80.7704 275.94 82.7618C276.602 83.9317 277.83 84.664 278.644 85.7386C279.174 86.4328 279.515 87.2533 279.636 88.1199C279.852 89.6381 279.375 91.1711 279.423 92.7041C279.52 95.9785 282.13 98.8272 285.243 99.7559C286.181 100.036 287.205 100.185 287.963 100.81C288.812 101.509 289.146 102.64 289.632 103.623C291.235 106.799 295.133 108.609 298.577 107.772L297.891 106.992C294.905 107.037 291.884 105.328 290.519 102.626Z" fill="black"/>
<path opacity="0.1" d="M270.119 89.0397C269.731 89.635 268.621 92.6832 267.695 95.3444C266.828 95.005 266.041 92.841 266.041 92.841L270.663 86.2267C271.137 86.8816 270.826 87.9681 270.119 89.0397Z" fill="black"/>
<path d="M270.296 88.8612C269.909 89.4565 268.799 92.5047 267.873 95.1659C267.006 94.8295 266.219 92.6625 266.219 92.6625L270.841 86.0511C271.314 86.7031 271.004 87.7925 270.296 88.8612Z" fill="#DCE7FF"/>
<path d="M243.421 119.271L240.859 111.142C240.828 111.047 240.817 110.946 240.825 110.847C240.833 110.747 240.861 110.65 240.907 110.561C240.953 110.473 241.015 110.394 241.091 110.329C241.167 110.265 241.255 110.216 241.35 110.186C241.541 110.126 241.747 110.145 241.924 110.237C242.102 110.33 242.236 110.489 242.297 110.68L244.859 118.801L244.605 120.501L243.421 119.271Z" fill="#BE8B87"/>
<path opacity="0.1" d="M241.101 110.428C241.292 110.367 241.5 110.385 241.678 110.477C241.856 110.57 241.99 110.73 242.051 110.922L244.614 119.042L244.421 120.316L244.608 120.513L244.862 118.813L242.285 110.692C242.224 110.501 242.09 110.342 241.913 110.249C241.735 110.157 241.529 110.138 241.338 110.198C241.177 110.251 241.039 110.355 240.944 110.496C240.995 110.469 241.047 110.446 241.101 110.428Z" fill="white"/>
<path d="M243.421 119.271L244.859 118.813L244.649 120.206L244.605 120.513L244.185 120.072L243.421 119.271Z" fill="#EFC8C4"/>
<path d="M244.185 120.072C244.21 120.04 244.241 120.014 244.276 119.995C244.297 119.981 244.321 119.974 244.346 119.974C244.371 119.974 244.395 119.981 244.416 119.995C244.436 120.019 244.453 120.046 244.466 120.075C244.485 120.108 244.512 120.136 244.544 120.157C244.576 120.178 244.612 120.192 244.649 120.197L244.605 120.495L244.185 120.072Z" fill="#727A9C"/>
<path d="M240.844 114.029C240.844 114.029 245.984 114 244.774 116.199C243.563 118.399 241.672 118.664 241.672 118.664L240.844 114.029Z" fill="#FFB0B1"/>
<path d="M208.876 15.3063H208.654C199.824 15.3063 192.015 20.0065 187.523 26.9423C183.03 20.0065 175.221 15.3063 166.391 15.3063H166.169C159.542 15.3698 153.208 18.0615 148.543 22.7965C143.878 27.5315 141.26 33.9271 141.256 40.5935C141.256 48.8718 144.86 60.6179 151.888 70.2834C165.278 88.7003 187.523 104.813 187.523 104.813C187.523 104.813 209.767 88.7033 223.154 70.2834C230.185 60.6179 233.786 48.8718 233.786 40.5935C233.783 33.9276 231.164 27.5325 226.5 22.7976C221.836 18.0627 215.502 15.3706 208.876 15.3063ZM205.701 71.7003C204.695 71.6964 203.714 71.3868 202.887 70.812C202.059 70.2372 201.424 69.4241 201.064 68.4795H195.785C195.437 68.4773 195.099 68.366 194.817 68.161C194.535 67.9561 194.324 67.6678 194.213 67.3364L192.592 62.4218L187.46 80.4578C187.36 80.805 187.151 81.1102 186.864 81.3276C186.577 81.545 186.228 81.6628 185.868 81.6634H185.765C185.39 81.6451 185.032 81.498 184.752 81.2467C184.472 80.9953 184.287 80.6548 184.226 80.2822L178.938 48.2884L175.073 67.2203C174.985 67.58 174.779 67.8994 174.489 68.1276C174.199 68.3558 173.841 68.4797 173.472 68.4795H166.036C165.813 68.489 165.591 68.453 165.382 68.3737C165.173 68.2944 164.982 68.1735 164.821 68.0182C164.66 67.8629 164.532 67.6764 164.445 67.47C164.357 67.2635 164.312 67.0414 164.312 66.817C164.312 66.5925 164.357 66.3704 164.445 66.164C164.532 65.9575 164.66 65.771 164.821 65.6157C164.982 65.4604 165.173 65.3395 165.382 65.2602C165.591 65.181 165.813 65.145 166.036 65.1545H172.17L177.645 39.7005C177.735 39.3242 177.952 38.9909 178.259 38.7578C178.566 38.5246 178.944 38.4059 179.328 38.4221C179.713 38.4383 180.08 38.5882 180.366 38.8464C180.653 39.1046 180.842 39.4549 180.9 39.8374L186.3 72.4742L190.899 56.3374C190.995 55.9976 191.197 55.698 191.476 55.4834C191.755 55.2688 192.095 55.1507 192.447 55.1467H192.479C192.827 55.1468 193.166 55.2574 193.447 55.4627C193.729 55.6679 193.939 55.9574 194.047 56.2898L196.98 65.1634H200.999C201.284 64.2902 201.804 63.5134 202.501 62.9187C203.198 62.3241 204.045 61.9346 204.948 61.7934C205.851 61.6522 206.775 61.7647 207.618 62.1185C208.462 62.4724 209.192 63.0537 209.727 63.7984C210.263 64.5432 210.584 65.4223 210.654 66.3389C210.725 67.2554 210.542 68.1737 210.126 68.9924C209.711 69.811 209.078 70.4983 208.299 70.9782C207.519 71.4582 206.623 71.7122 205.71 71.7122L205.701 71.7003Z" fill="#6C63FF"/>
</g>
<defs>
<linearGradient id="paint0_linear" x1="105.444" y1="230.657" x2="105.444" y2="47.4876" gradientUnits="userSpaceOnUse">
<stop stop-color="#808080" stop-opacity="0.25"/>
<stop offset="0.54" stop-color="#808080" stop-opacity="0.12"/>
<stop offset="1" stop-color="#808080" stop-opacity="0.1"/>
</linearGradient>
<linearGradient id="paint1_linear" x1="66053.2" y1="138204" x2="66053.2" y2="44181.4" gradientUnits="userSpaceOnUse">
<stop stop-color="#808080" stop-opacity="0.25"/>
<stop offset="0.54" stop-color="#808080" stop-opacity="0.12"/>
<stop offset="1" stop-color="#808080" stop-opacity="0.1"/>
</linearGradient>
<clipPath id="clip0">
<rect width="327" height="233" fill="white"/>
</clipPath>
</defs>
</svg>
